<svg xmlns="http://www.w3.org/2000/svg" xmlns:xlink="http://www.w3.org/1999/xlink" width="180" zoomAndPan="magnify" viewBox="0 0 135 67.499998" height="90" preserveAspectRatio="xMidYMid meet" version="1.0"><defs><g/></defs><g fill="#ffffff" fill-opacity="1"><g transform="translate(36.01559, 38.617375)"><g><path d="M 3.109375 0 L 2.609375 -1.296875 L 0.984375 -1.296875 L 0.484375 0 L 0 0 L 1.609375 -4.078125 L 2 -4.078125 L 3.59375 0 Z M 2.453125 -1.71875 L 1.984375 -2.96875 C 1.921875 -3.132812 1.859375 -3.332031 1.796875 -3.5625 C 1.753906 -3.382812 1.695312 -3.1875 1.625 -2.96875 L 1.140625 -1.71875 Z M 2.453125 -1.71875 "/></g></g></g><g fill="#ffffff" fill-opacity="1"><g transform="translate(42.971658, 38.617375)"><g><path d="M 2.34375 -2.125 L 3.71875 -2.125 L 3.71875 -0.15625 C 3.507812 -0.0820312 3.289062 -0.03125 3.0625 0 C 2.84375 0.0390625 2.585938 0.0625 2.296875 0.0625 C 1.679688 0.0625 1.203125 -0.117188 0.859375 -0.484375 C 0.515625 -0.859375 0.34375 -1.375 0.34375 -2.03125 C 0.34375 -2.445312 0.425781 -2.8125 0.59375 -3.125 C 0.769531 -3.445312 1.015625 -3.691406 1.328125 -3.859375 C 1.648438 -4.035156 2.023438 -4.125 2.453125 -4.125 C 2.890625 -4.125 3.289062 -4.039062 3.65625 -3.875 L 3.484375 -3.46875 C 3.117188 -3.625 2.765625 -3.703125 2.421875 -3.703125 C 1.929688 -3.703125 1.546875 -3.550781 1.265625 -3.25 C 0.984375 -2.957031 0.84375 -2.550781 0.84375 -2.03125 C 0.84375 -1.476562 0.976562 -1.0625 1.25 -0.78125 C 1.519531 -0.5 1.910156 -0.359375 2.421875 -0.359375 C 2.703125 -0.359375 2.976562 -0.390625 3.25 -0.453125 L 3.25 -1.703125 L 2.34375 -1.703125 Z M 2.34375 -2.125 "/></g></g></g><g fill="#ffffff" fill-opacity="1"><g transform="translate(50.46892, 38.617375)"><g><path d="M 2.828125 0 L 0.5625 0 L 0.5625 -4.0625 L 2.828125 -4.0625 L 2.828125 -3.640625 L 1.03125 -3.640625 L 1.03125 -2.328125 L 2.71875 -2.328125 L 2.71875 -1.921875 L 1.03125 -1.921875 L 1.03125 -0.421875 L 2.828125 -0.421875 Z M 0.734375 -4.453125 C 0.960938 -4.703125 1.125 -4.882812 1.21875 -5 C 1.3125 -5.125 1.378906 -5.222656 1.421875 -5.296875 L 1.890625 -5.296875 C 1.929688 -5.210938 2 -5.109375 2.09375 -4.984375 C 2.195312 -4.867188 2.363281 -4.691406 2.59375 -4.453125 L 2.59375 -4.390625 L 2.265625 -4.390625 C 2.109375 -4.484375 1.90625 -4.65625 1.65625 -4.90625 C 1.40625 -4.65625 1.203125 -4.484375 1.046875 -4.390625 L 0.734375 -4.390625 Z M 0.734375 -4.453125 "/></g></g></g><g fill="#ffffff" fill-opacity="1"><g transform="translate(56.989256, 38.617375)"><g><path d="M 3.734375 0 L 3.1875 0 L 0.96875 -3.40625 L 0.953125 -3.40625 C 0.984375 -3.007812 1 -2.644531 1 -2.3125 L 1 0 L 0.5625 0 L 0.5625 -4.0625 L 1.09375 -4.0625 L 3.3125 -0.671875 L 3.328125 -0.671875 C 3.328125 -0.710938 3.316406 -0.867188 3.296875 -1.140625 C 3.285156 -1.421875 3.28125 -1.617188 3.28125 -1.734375 L 3.28125 -4.0625 L 3.734375 -4.0625 Z M 3.734375 0 "/></g></g></g><g fill="#ffffff" fill-opacity="1"><g transform="translate(64.633612, 38.617375)"><g><path d="M 2.296875 -3.703125 C 1.847656 -3.703125 1.492188 -3.550781 1.234375 -3.25 C 0.984375 -2.957031 0.859375 -2.550781 0.859375 -2.03125 C 0.859375 -1.5 0.976562 -1.085938 1.21875 -0.796875 C 1.46875 -0.503906 1.828125 -0.359375 2.296875 -0.359375 C 2.578125 -0.359375 2.898438 -0.410156 3.265625 -0.515625 L 3.265625 -0.109375 C 2.984375 0.00390625 2.632812 0.0625 2.21875 0.0625 C 1.625 0.0625 1.160156 -0.117188 0.828125 -0.484375 C 0.503906 -0.847656 0.34375 -1.363281 0.34375 -2.03125 C 0.34375 -2.445312 0.421875 -2.8125 0.578125 -3.125 C 0.734375 -3.445312 0.957031 -3.691406 1.25 -3.859375 C 1.550781 -4.035156 1.898438 -4.125 2.296875 -4.125 C 2.722656 -4.125 3.097656 -4.046875 3.421875 -3.890625 L 3.21875 -3.484375 C 2.90625 -3.628906 2.597656 -3.703125 2.296875 -3.703125 Z M 2.296875 -3.703125 "/></g></g></g><g fill="#ffffff" fill-opacity="1"><g transform="translate(71.578578, 38.617375)"><g><path d="M 0.5625 0 L 0.5625 -4.0625 L 1.03125 -4.0625 L 1.03125 0 Z M 0.5625 0 "/></g></g></g><g fill="#ffffff" fill-opacity="1"><g transform="translate(76.522512, 38.617375)"><g><path d="M 3.109375 0 L 2.609375 -1.296875 L 0.984375 -1.296875 L 0.484375 0 L 0 0 L 1.609375 -4.078125 L 2 -4.078125 L 3.59375 0 Z M 2.453125 -1.71875 L 1.984375 -2.96875 C 1.921875 -3.132812 1.859375 -3.332031 1.796875 -3.5625 C 1.753906 -3.382812 1.695312 -3.1875 1.625 -2.96875 L 1.140625 -1.71875 Z M 2.453125 -1.71875 "/></g></g></g><g fill="#ffffff" fill-opacity="1"><g transform="translate(83.478581, 38.617375)"><g/></g></g><g fill="#ffffff" fill-opacity="1"><g transform="translate(88.314276, 38.617375)"><g><path d="M 3.796875 -2.0625 C 3.796875 -1.394531 3.613281 -0.882812 3.25 -0.53125 C 2.882812 -0.175781 2.363281 0 1.6875 0 L 0.5625 0 L 0.5625 -4.0625 L 1.796875 -4.0625 C 2.429688 -4.0625 2.921875 -3.882812 3.265625 -3.53125 C 3.617188 -3.1875 3.796875 -2.695312 3.796875 -2.0625 Z M 3.296875 -2.046875 C 3.296875 -2.578125 3.160156 -2.976562 2.890625 -3.25 C 2.628906 -3.519531 2.238281 -3.65625 1.71875 -3.65625 L 1.03125 -3.65625 L 1.03125 -0.40625 L 1.609375 -0.40625 C 2.171875 -0.40625 2.59375 -0.539062 2.875 -0.8125 C 3.15625 -1.09375 3.296875 -1.503906 3.296875 -2.046875 Z M 3.296875 -2.046875 "/></g></g></g><g fill="#ffffff" fill-opacity="1"><g transform="translate(95.81709, 38.617375)"><g><path d="M 2.828125 0 L 0.5625 0 L 0.5625 -4.0625 L 2.828125 -4.0625 L 2.828125 -3.640625 L 1.03125 -3.640625 L 1.03125 -2.328125 L 2.71875 -2.328125 L 2.71875 -1.921875 L 1.03125 -1.921875 L 1.03125 -0.421875 L 2.828125 -0.421875 Z M 2.828125 0 "/></g></g></g><g fill="#ffffff" fill-opacity="1"><g transform="translate(17.113555, 46.195951)"><g><path d="M 3.796875 -2.0625 C 3.796875 -1.394531 3.613281 -0.882812 3.25 -0.53125 C 2.882812 -0.175781 2.363281 0 1.6875 0 L 0.5625 0 L 0.5625 -4.0625 L 1.796875 -4.0625 C 2.429688 -4.0625 2.921875 -3.882812 3.265625 -3.53125 C 3.617188 -3.1875 3.796875 -2.695312 3.796875 -2.0625 Z M 3.296875 -2.046875 C 3.296875 -2.578125 3.160156 -2.976562 2.890625 -3.25 C 2.628906 -3.519531 2.238281 -3.65625 1.71875 -3.65625 L 1.03125 -3.65625 L 1.03125 -0.40625 L 1.609375 -0.40625 C 2.171875 -0.40625 2.59375 -0.539062 2.875 -0.8125 C 3.15625 -1.09375 3.296875 -1.503906 3.296875 -2.046875 Z M 3.296875 -2.046875 "/></g></g></g><g fill="#ffffff" fill-opacity="1"><g transform="translate(24.616368, 46.195951)"><g><path d="M 2.828125 0 L 0.5625 0 L 0.5625 -4.0625 L 2.828125 -4.0625 L 2.828125 -3.640625 L 1.03125 -3.640625 L 1.03125 -2.328125 L 2.71875 -2.328125 L 2.71875 -1.921875 L 1.03125 -1.921875 L 1.03125 -0.421875 L 2.828125 -0.421875 Z M 2.828125 0 "/></g></g></g><g fill="#ffffff" fill-opacity="1"><g transform="translate(31.136704, 46.195951)"><g><path d="M 2.84375 -1.078125 C 2.84375 -0.722656 2.710938 -0.441406 2.453125 -0.234375 C 2.203125 -0.0351562 1.851562 0.0625 1.40625 0.0625 C 0.925781 0.0625 0.554688 0 0.296875 -0.125 L 0.296875 -0.59375 C 0.460938 -0.519531 0.644531 -0.460938 0.84375 -0.421875 C 1.039062 -0.378906 1.234375 -0.359375 1.421875 -0.359375 C 1.734375 -0.359375 1.96875 -0.414062 2.125 -0.53125 C 2.289062 -0.65625 2.375 -0.820312 2.375 -1.03125 C 2.375 -1.175781 2.34375 -1.289062 2.28125 -1.375 C 2.226562 -1.46875 2.132812 -1.550781 2 -1.625 C 1.875 -1.707031 1.675781 -1.796875 1.40625 -1.890625 C 1.019531 -2.023438 0.742188 -2.179688 0.578125 -2.359375 C 0.421875 -2.546875 0.34375 -2.789062 0.34375 -3.09375 C 0.34375 -3.40625 0.457031 -3.65625 0.6875 -3.84375 C 0.925781 -4.03125 1.242188 -4.125 1.640625 -4.125 C 2.035156 -4.125 2.40625 -4.046875 2.75 -3.890625 L 2.59375 -3.484375 C 2.257812 -3.628906 1.9375 -3.703125 1.625 -3.703125 C 1.375 -3.703125 1.175781 -3.644531 1.03125 -3.53125 C 0.894531 -3.425781 0.828125 -3.28125 0.828125 -3.09375 C 0.828125 -2.945312 0.851562 -2.828125 0.90625 -2.734375 C 0.957031 -2.648438 1.039062 -2.566406 1.15625 -2.484375 C 1.28125 -2.410156 1.472656 -2.332031 1.734375 -2.25 C 2.160156 -2.09375 2.453125 -1.925781 2.609375 -1.75 C 2.765625 -1.582031 2.84375 -1.359375 2.84375 -1.078125 Z M 2.84375 -1.078125 "/></g></g></g><g fill="#ffffff" fill-opacity="1"><g transform="translate(37.615411, 46.195951)"><g><path d="M 2.828125 0 L 0.5625 0 L 0.5625 -4.0625 L 2.828125 -4.0625 L 2.828125 -3.640625 L 1.03125 -3.640625 L 1.03125 -2.328125 L 2.71875 -2.328125 L 2.71875 -1.921875 L 1.03125 -1.921875 L 1.03125 -0.421875 L 2.828125 -0.421875 Z M 2.828125 0 "/></g></g></g><g fill="#ffffff" fill-opacity="1"><g transform="translate(44.135746, 46.195951)"><g><path d="M 3.734375 0 L 3.1875 0 L 0.96875 -3.40625 L 0.953125 -3.40625 C 0.984375 -3.007812 1 -2.644531 1 -2.3125 L 1 0 L 0.5625 0 L 0.5625 -4.0625 L 1.09375 -4.0625 L 3.3125 -0.671875 L 3.328125 -0.671875 C 3.328125 -0.710938 3.316406 -0.867188 3.296875 -1.140625 C 3.285156 -1.421875 3.28125 -1.617188 3.28125 -1.734375 L 3.28125 -4.0625 L 3.734375 -4.0625 Z M 3.734375 0 "/></g></g></g><g fill="#ffffff" fill-opacity="1"><g transform="translate(51.780102, 46.195951)"><g><path d="M 2.875 -4.0625 L 3.390625 -4.0625 L 1.921875 0 L 1.453125 0 L 0 -4.0625 L 0.5 -4.0625 L 1.4375 -1.4375 C 1.539062 -1.132812 1.625 -0.835938 1.6875 -0.546875 C 1.75 -0.847656 1.835938 -1.148438 1.953125 -1.453125 Z M 2.875 -4.0625 "/></g></g></g><g fill="#ffffff" fill-opacity="1"><g transform="translate(58.522468, 46.195951)"><g><path d="M 4.078125 -2.03125 C 4.078125 -1.382812 3.910156 -0.875 3.578125 -0.5 C 3.253906 -0.125 2.800781 0.0625 2.21875 0.0625 C 1.625 0.0625 1.160156 -0.117188 0.828125 -0.484375 C 0.503906 -0.859375 0.34375 -1.378906 0.34375 -2.046875 C 0.34375 -2.703125 0.503906 -3.210938 0.828125 -3.578125 C 1.160156 -3.941406 1.625 -4.125 2.21875 -4.125 C 2.800781 -4.125 3.253906 -3.9375 3.578125 -3.5625 C 3.910156 -3.195312 4.078125 -2.6875 4.078125 -2.03125 Z M 0.84375 -2.03125 C 0.84375 -1.476562 0.957031 -1.0625 1.1875 -0.78125 C 1.425781 -0.5 1.769531 -0.359375 2.21875 -0.359375 C 2.664062 -0.359375 3.003906 -0.5 3.234375 -0.78125 C 3.460938 -1.0625 3.578125 -1.476562 3.578125 -2.03125 C 3.578125 -2.582031 3.460938 -3 3.234375 -3.28125 C 3.003906 -3.5625 2.664062 -3.703125 2.21875 -3.703125 C 1.769531 -3.703125 1.425781 -3.554688 1.1875 -3.265625 C 0.957031 -2.984375 0.84375 -2.570312 0.84375 -2.03125 Z M 0.84375 -2.03125 "/></g></g></g><g fill="#ffffff" fill-opacity="1"><g transform="translate(66.308365, 46.195951)"><g><path d="M 0.5625 0 L 0.5625 -4.0625 L 1.03125 -4.0625 L 1.03125 -0.421875 L 2.828125 -0.421875 L 2.828125 0 Z M 0.5625 0 "/></g></g></g><g fill="#ffffff" fill-opacity="1"><g transform="translate(72.617776, 46.195951)"><g><path d="M 2.875 -4.0625 L 3.390625 -4.0625 L 1.921875 0 L 1.453125 0 L 0 -4.0625 L 0.5 -4.0625 L 1.4375 -1.4375 C 1.539062 -1.132812 1.625 -0.835938 1.6875 -0.546875 C 1.75 -0.847656 1.835938 -1.148438 1.953125 -1.453125 Z M 2.875 -4.0625 "/></g></g></g><g fill="#ffffff" fill-opacity="1"><g transform="translate(79.360142, 46.195951)"><g><path d="M 0.5625 0 L 0.5625 -4.0625 L 1.03125 -4.0625 L 1.03125 0 Z M 0.5625 0 "/></g></g></g><g fill="#ffffff" fill-opacity="1"><g transform="translate(84.304073, 46.195951)"><g><path d="M 2.359375 0 L 0.984375 -3.59375 L 0.953125 -3.59375 C 0.984375 -3.3125 1 -2.972656 1 -2.578125 L 1 0 L 0.5625 0 L 0.5625 -4.0625 L 1.265625 -4.0625 L 2.5625 -0.71875 L 2.578125 -0.71875 L 3.875 -4.0625 L 4.578125 -4.0625 L 4.578125 0 L 4.109375 0 L 4.109375 -2.609375 C 4.109375 -2.910156 4.117188 -3.238281 4.140625 -3.59375 L 4.125 -3.59375 L 2.734375 0 Z M 2.359375 0 "/></g></g></g><g fill="#ffffff" fill-opacity="1"><g transform="translate(92.794911, 46.195951)"><g><path d="M 2.828125 0 L 0.5625 0 L 0.5625 -4.0625 L 2.828125 -4.0625 L 2.828125 -3.640625 L 1.03125 -3.640625 L 1.03125 -2.328125 L 2.71875 -2.328125 L 2.71875 -1.921875 L 1.03125 -1.921875 L 1.03125 -0.421875 L 2.828125 -0.421875 Z M 2.828125 0 "/></g></g></g><g fill="#ffffff" fill-opacity="1"><g transform="translate(99.315245, 46.195951)"><g><path d="M 3.734375 0 L 3.1875 0 L 0.96875 -3.40625 L 0.953125 -3.40625 C 0.984375 -3.007812 1 -2.644531 1 -2.3125 L 1 0 L 0.5625 0 L 0.5625 -4.0625 L 1.09375 -4.0625 L 3.3125 -0.671875 L 3.328125 -0.671875 C 3.328125 -0.710938 3.316406 -0.867188 3.296875 -1.140625 C 3.285156 -1.421875 3.28125 -1.617188 3.28125 -1.734375 L 3.28125 -4.0625 L 3.734375 -4.0625 Z M 3.734375 0 "/></g></g></g><g fill="#ffffff" fill-opacity="1"><g transform="translate(106.959598, 46.195951)"><g><path d="M 1.8125 0 L 1.328125 0 L 1.328125 -3.640625 L 0.046875 -3.640625 L 0.046875 -4.0625 L 3.09375 -4.0625 L 3.09375 -3.640625 L 1.8125 -3.640625 Z M 1.8125 0 "/></g></g></g><g fill="#ffffff" fill-opacity="1"><g transform="translate(113.46328, 46.195951)"><g><path d="M 4.078125 -2.03125 C 4.078125 -1.382812 3.910156 -0.875 3.578125 -0.5 C 3.253906 -0.125 2.800781 0.0625 2.21875 0.0625 C 1.625 0.0625 1.160156 -0.117188 0.828125 -0.484375 C 0.503906 -0.859375 0.34375 -1.378906 0.34375 -2.046875 C 0.34375 -2.703125 0.503906 -3.210938 0.828125 -3.578125 C 1.160156 -3.941406 1.625 -4.125 2.21875 -4.125 C 2.800781 -4.125 3.253906 -3.9375 3.578125 -3.5625 C 3.910156 -3.195312 4.078125 -2.6875 4.078125 -2.03125 Z M 0.84375 -2.03125 C 0.84375 -1.476562 0.957031 -1.0625 1.1875 -0.78125 C 1.425781 -0.5 1.769531 -0.359375 2.21875 -0.359375 C 2.664062 -0.359375 3.003906 -0.5 3.234375 -0.78125 C 3.460938 -1.0625 3.578125 -1.476562 3.578125 -2.03125 C 3.578125 -2.582031 3.460938 -3 3.234375 -3.28125 C 3.003906 -3.5625 2.664062 -3.703125 2.21875 -3.703125 C 1.769531 -3.703125 1.425781 -3.554688 1.1875 -3.265625 C 0.957031 -2.984375 0.84375 -2.570312 0.84375 -2.03125 Z M 0.84375 -2.03125 "/></g></g></g><g fill="#ffffff" fill-opacity="1"><g transform="translate(45.171495, 28.953078)"><g><path d="M 10.890625 -7.078125 C 11.796875 -6.890625 12.492188 -6.503906 12.984375 -5.921875 C 13.472656 -5.335938 13.71875 -4.585938 13.71875 -3.671875 C 13.71875 -2.492188 13.28125 -1.585938 12.40625 -0.953125 C 11.539062 -0.316406 10.257812 0 8.5625 0 L 2.234375 0 L 2.234375 -13.734375 L 8.15625 -13.734375 C 9.6875 -13.734375 10.875 -13.425781 11.71875 -12.8125 C 12.5625 -12.195312 12.984375 -11.328125 12.984375 -10.203125 C 12.984375 -9.441406 12.796875 -8.796875 12.421875 -8.265625 C 12.054688 -7.742188 11.546875 -7.347656 10.890625 -7.078125 Z M 3.6875 -12.546875 L 3.6875 -7.5625 L 8.0625 -7.5625 C 9.175781 -7.5625 10.035156 -7.769531 10.640625 -8.1875 C 11.242188 -8.613281 11.546875 -9.234375 11.546875 -10.046875 C 11.546875 -10.859375 11.242188 -11.476562 10.640625 -11.90625 C 10.035156 -12.332031 9.175781 -12.546875 8.0625 -12.546875 Z M 8.53125 -1.203125 C 9.757812 -1.203125 10.6875 -1.410156 11.3125 -1.828125 C 11.945312 -2.242188 12.265625 -2.894531 12.265625 -3.78125 C 12.265625 -5.5 11.019531 -6.359375 8.53125 -6.359375 L 3.6875 -6.359375 L 3.6875 -1.203125 Z M 8.53125 -1.203125 "/></g></g></g><g fill="#ffffff" fill-opacity="1"><g transform="translate(59.575378, 28.953078)"><g><path d="M 11.625 0 L 8.484375 -4.421875 C 8.128906 -4.378906 7.757812 -4.359375 7.375 -4.359375 L 3.6875 -4.359375 L 3.6875 0 L 2.234375 0 L 2.234375 -13.734375 L 7.375 -13.734375 C 9.132812 -13.734375 10.507812 -13.3125 11.5 -12.46875 C 12.488281 -11.632812 12.984375 -10.488281 12.984375 -9.03125 C 12.984375 -7.957031 12.710938 -7.050781 12.171875 -6.3125 C 11.628906 -5.570312 10.859375 -5.035156 9.859375 -4.703125 L 13.203125 0 Z M 7.34375 -5.59375 C 8.695312 -5.59375 9.734375 -5.894531 10.453125 -6.5 C 11.179688 -7.101562 11.546875 -7.945312 11.546875 -9.03125 C 11.546875 -10.144531 11.179688 -11 10.453125 -11.59375 C 9.734375 -12.1875 8.695312 -12.484375 7.34375 -12.484375 L 3.6875 -12.484375 L 3.6875 -5.59375 Z M 7.34375 -5.59375 "/></g></g></g><g fill="#ffffff" fill-opacity="1"><g transform="translate(73.370913, 28.953078)"><g><path d="M 8.25 0.125 C 6.882812 0.125 5.648438 -0.175781 4.546875 -0.78125 C 3.441406 -1.394531 2.578125 -2.234375 1.953125 -3.296875 C 1.328125 -4.359375 1.015625 -5.550781 1.015625 -6.875 C 1.015625 -8.1875 1.328125 -9.375 1.953125 -10.4375 C 2.578125 -11.5 3.441406 -12.332031 4.546875 -12.9375 C 5.648438 -13.550781 6.882812 -13.859375 8.25 -13.859375 C 9.601562 -13.859375 10.828125 -13.554688 11.921875 -12.953125 C 13.015625 -12.347656 13.875 -11.507812 14.5 -10.4375 C 15.125 -9.375 15.4375 -8.1875 15.4375 -6.875 C 15.4375 -5.550781 15.125 -4.351562 14.5 -3.28125 C 13.875 -2.21875 13.015625 -1.382812 11.921875 -0.78125 C 10.828125 -0.175781 9.601562 0.125 8.25 0.125 Z M 8.25 -1.171875 C 9.332031 -1.171875 10.3125 -1.414062 11.1875 -1.90625 C 12.0625 -2.40625 12.75 -3.085938 13.25 -3.953125 C 13.75 -4.828125 14 -5.800781 14 -6.875 C 14 -7.945312 13.75 -8.914062 13.25 -9.78125 C 12.75 -10.65625 12.0625 -11.335938 11.1875 -11.828125 C 10.3125 -12.316406 9.332031 -12.5625 8.25 -12.5625 C 7.15625 -12.5625 6.164062 -12.316406 5.28125 -11.828125 C 4.40625 -11.335938 3.710938 -10.65625 3.203125 -9.78125 C 2.703125 -8.914062 2.453125 -7.945312 2.453125 -6.875 C 2.453125 -5.800781 2.703125 -4.828125 3.203125 -3.953125 C 3.710938 -3.085938 4.40625 -2.40625 5.28125 -1.90625 C 6.164062 -1.414062 7.15625 -1.171875 8.25 -1.171875 Z M 8.25 -1.171875 "/></g></g></g></svg>