<svg xmlns="http://www.w3.org/2000/svg" xmlns:xlink="http://www.w3.org/1999/xlink" width="180" zoomAndPan="magnify" viewBox="0 0 135 67.499998" height="90" preserveAspectRatio="xMidYMid meet" version="1.0"><defs><g/></defs><g fill="#070707" fill-opacity="1"><g transform="translate(35.3125, 38.617371)"><g><path d="M 3 0 L 2.703125 -0.96875 L 1.21875 -0.96875 L 0.921875 0 L 0 0 L 1.4375 -4.078125 L 2.484375 -4.078125 L 3.921875 0 Z M 2.5 -1.6875 C 2.226562 -2.5625 2.070312 -3.054688 2.03125 -3.171875 C 2 -3.285156 1.976562 -3.378906 1.96875 -3.453125 C 1.90625 -3.210938 1.726562 -2.625 1.4375 -1.6875 Z M 2.5 -1.6875 "/></g></g></g><g fill="#070707" fill-opacity="1"><g transform="translate(42.593284, 38.617371)"><g><path d="M 2.046875 -2.28125 L 3.65625 -2.28125 L 3.65625 -0.171875 C 3.394531 -0.0859375 3.148438 -0.03125 2.921875 0 C 2.691406 0.0390625 2.457031 0.0625 2.21875 0.0625 C 1.601562 0.0625 1.132812 -0.117188 0.8125 -0.484375 C 0.488281 -0.847656 0.328125 -1.363281 0.328125 -2.03125 C 0.328125 -2.6875 0.515625 -3.195312 0.890625 -3.5625 C 1.265625 -3.9375 1.785156 -4.125 2.453125 -4.125 C 2.867188 -4.125 3.269531 -4.039062 3.65625 -3.875 L 3.375 -3.1875 C 3.070312 -3.332031 2.765625 -3.40625 2.453125 -3.40625 C 2.078125 -3.40625 1.773438 -3.28125 1.546875 -3.03125 C 1.328125 -2.78125 1.21875 -2.441406 1.21875 -2.015625 C 1.21875 -1.578125 1.304688 -1.238281 1.484375 -1 C 1.671875 -0.769531 1.9375 -0.65625 2.28125 -0.65625 C 2.457031 -0.65625 2.640625 -0.675781 2.828125 -0.71875 L 2.828125 -1.5625 L 2.046875 -1.5625 Z M 2.046875 -2.28125 "/></g></g></g><g fill="#070707" fill-opacity="1"><g transform="translate(50.068343, 38.617371)"><g><path d="M 2.84375 0 L 0.515625 0 L 0.515625 -4.0625 L 2.84375 -4.0625 L 2.84375 -3.359375 L 1.375 -3.359375 L 1.375 -2.46875 L 2.75 -2.46875 L 2.75 -1.765625 L 1.375 -1.765625 L 1.375 -0.71875 L 2.84375 -0.71875 Z M 2.328125 -4.390625 C 2.046875 -4.554688 1.832031 -4.71875 1.6875 -4.875 C 1.539062 -4.71875 1.328125 -4.554688 1.046875 -4.390625 L 0.484375 -4.390625 L 0.484375 -4.453125 C 0.835938 -4.804688 1.078125 -5.085938 1.203125 -5.296875 L 2.1875 -5.296875 C 2.25 -5.203125 2.347656 -5.070312 2.484375 -4.90625 C 2.628906 -4.738281 2.769531 -4.585938 2.90625 -4.453125 L 2.90625 -4.390625 Z M 2.328125 -4.390625 "/></g></g></g><g fill="#070707" fill-opacity="1"><g transform="translate(56.610883, 38.617371)"><g><path d="M 4.109375 0 L 3.015625 0 L 1.25 -3.078125 L 1.234375 -3.078125 C 1.265625 -2.523438 1.28125 -2.132812 1.28125 -1.90625 L 1.28125 0 L 0.515625 0 L 0.515625 -4.0625 L 1.59375 -4.0625 L 3.359375 -1.015625 L 3.375 -1.015625 C 3.351562 -1.546875 3.34375 -1.921875 3.34375 -2.140625 L 3.34375 -4.0625 L 4.109375 -4.0625 Z M 4.109375 0 "/></g></g></g><g fill="#070707" fill-opacity="1"><g transform="translate(64.591056, 38.617371)"><g><path d="M 2.234375 -3.40625 C 1.910156 -3.40625 1.660156 -3.28125 1.484375 -3.03125 C 1.304688 -2.789062 1.21875 -2.453125 1.21875 -2.015625 C 1.21875 -1.109375 1.554688 -0.65625 2.234375 -0.65625 C 2.515625 -0.65625 2.859375 -0.726562 3.265625 -0.875 L 3.265625 -0.15625 C 2.929688 -0.0078125 2.5625 0.0625 2.15625 0.0625 C 1.5625 0.0625 1.109375 -0.113281 0.796875 -0.46875 C 0.484375 -0.832031 0.328125 -1.351562 0.328125 -2.03125 C 0.328125 -2.445312 0.40625 -2.8125 0.5625 -3.125 C 0.71875 -3.445312 0.9375 -3.691406 1.21875 -3.859375 C 1.507812 -4.035156 1.847656 -4.125 2.234375 -4.125 C 2.628906 -4.125 3.023438 -4.023438 3.421875 -3.828125 L 3.140625 -3.125 C 2.992188 -3.195312 2.84375 -3.257812 2.6875 -3.3125 C 2.53125 -3.375 2.378906 -3.40625 2.234375 -3.40625 Z M 2.234375 -3.40625 "/></g></g></g><g fill="#070707" fill-opacity="1"><g transform="translate(71.572101, 38.617371)"><g><path d="M 0.515625 0 L 0.515625 -4.0625 L 1.375 -4.0625 L 1.375 0 Z M 0.515625 0 "/></g></g></g><g fill="#070707" fill-opacity="1"><g transform="translate(76.812999, 38.617371)"><g><path d="M 3 0 L 2.703125 -0.96875 L 1.21875 -0.96875 L 0.921875 0 L 0 0 L 1.4375 -4.078125 L 2.484375 -4.078125 L 3.921875 0 Z M 2.5 -1.6875 C 2.226562 -2.5625 2.070312 -3.054688 2.03125 -3.171875 C 2 -3.285156 1.976562 -3.378906 1.96875 -3.453125 C 1.90625 -3.210938 1.726562 -2.625 1.4375 -1.6875 Z M 2.5 -1.6875 "/></g></g></g><g fill="#070707" fill-opacity="1"><g transform="translate(84.093785, 38.617371)"><g/></g></g><g fill="#070707" fill-opacity="1"><g transform="translate(88.92948, 38.617371)"><g><path d="M 3.875 -2.0625 C 3.875 -1.394531 3.679688 -0.882812 3.296875 -0.53125 C 2.921875 -0.175781 2.375 0 1.65625 0 L 0.515625 0 L 0.515625 -4.0625 L 1.78125 -4.0625 C 2.445312 -4.0625 2.960938 -3.882812 3.328125 -3.53125 C 3.691406 -3.1875 3.875 -2.695312 3.875 -2.0625 Z M 2.984375 -2.046875 C 2.984375 -2.921875 2.597656 -3.359375 1.828125 -3.359375 L 1.375 -3.359375 L 1.375 -0.71875 L 1.734375 -0.71875 C 2.566406 -0.71875 2.984375 -1.160156 2.984375 -2.046875 Z M 2.984375 -2.046875 "/></g></g></g><g fill="#070707" fill-opacity="1"><g transform="translate(96.496124, 38.617371)"><g><path d="M 2.84375 0 L 0.515625 0 L 0.515625 -4.0625 L 2.84375 -4.0625 L 2.84375 -3.359375 L 1.375 -3.359375 L 1.375 -2.46875 L 2.75 -2.46875 L 2.75 -1.765625 L 1.375 -1.765625 L 1.375 -0.71875 L 2.84375 -0.71875 Z M 2.84375 0 "/></g></g></g><g fill="#070707" fill-opacity="1"><g transform="translate(15.83319, 46.195947)"><g><path d="M 3.875 -2.0625 C 3.875 -1.394531 3.679688 -0.882812 3.296875 -0.53125 C 2.921875 -0.175781 2.375 0 1.65625 0 L 0.515625 0 L 0.515625 -4.0625 L 1.78125 -4.0625 C 2.445312 -4.0625 2.960938 -3.882812 3.328125 -3.53125 C 3.691406 -3.1875 3.875 -2.695312 3.875 -2.0625 Z M 2.984375 -2.046875 C 2.984375 -2.921875 2.597656 -3.359375 1.828125 -3.359375 L 1.375 -3.359375 L 1.375 -0.71875 L 1.734375 -0.71875 C 2.566406 -0.71875 2.984375 -1.160156 2.984375 -2.046875 Z M 2.984375 -2.046875 "/></g></g></g><g fill="#070707" fill-opacity="1"><g transform="translate(23.399836, 46.195947)"><g><path d="M 2.84375 0 L 0.515625 0 L 0.515625 -4.0625 L 2.84375 -4.0625 L 2.84375 -3.359375 L 1.375 -3.359375 L 1.375 -2.46875 L 2.75 -2.46875 L 2.75 -1.765625 L 1.375 -1.765625 L 1.375 -0.71875 L 2.84375 -0.71875 Z M 2.84375 0 "/></g></g></g><g fill="#070707" fill-opacity="1"><g transform="translate(29.942375, 46.195947)"><g><path d="M 2.90625 -1.125 C 2.90625 -0.757812 2.769531 -0.46875 2.5 -0.25 C 2.238281 -0.0390625 1.875 0.0625 1.40625 0.0625 C 0.976562 0.0625 0.597656 -0.0195312 0.265625 -0.1875 L 0.265625 -0.984375 C 0.535156 -0.867188 0.765625 -0.785156 0.953125 -0.734375 C 1.140625 -0.679688 1.316406 -0.65625 1.484375 -0.65625 C 1.671875 -0.65625 1.8125 -0.691406 1.90625 -0.765625 C 2.007812 -0.835938 2.0625 -0.941406 2.0625 -1.078125 C 2.0625 -1.160156 2.039062 -1.234375 2 -1.296875 C 1.957031 -1.359375 1.890625 -1.414062 1.796875 -1.46875 C 1.710938 -1.53125 1.539062 -1.625 1.28125 -1.75 C 1.03125 -1.863281 0.84375 -1.972656 0.71875 -2.078125 C 0.59375 -2.191406 0.492188 -2.316406 0.421875 -2.453125 C 0.347656 -2.597656 0.3125 -2.769531 0.3125 -2.96875 C 0.3125 -3.320312 0.429688 -3.601562 0.671875 -3.8125 C 0.910156 -4.019531 1.25 -4.125 1.6875 -4.125 C 1.894531 -4.125 2.09375 -4.097656 2.28125 -4.046875 C 2.476562 -3.992188 2.679688 -3.921875 2.890625 -3.828125 L 2.609375 -3.15625 C 2.390625 -3.25 2.207031 -3.3125 2.0625 -3.34375 C 1.925781 -3.382812 1.789062 -3.40625 1.65625 -3.40625 C 1.488281 -3.40625 1.363281 -3.363281 1.28125 -3.28125 C 1.195312 -3.207031 1.15625 -3.109375 1.15625 -2.984375 C 1.15625 -2.910156 1.171875 -2.84375 1.203125 -2.78125 C 1.234375 -2.726562 1.285156 -2.675781 1.359375 -2.625 C 1.441406 -2.570312 1.628906 -2.476562 1.921875 -2.34375 C 2.296875 -2.164062 2.550781 -1.984375 2.6875 -1.796875 C 2.832031 -1.617188 2.90625 -1.394531 2.90625 -1.125 Z M 2.90625 -1.125 "/></g></g></g><g fill="#070707" fill-opacity="1"><g transform="translate(36.432183, 46.195947)"><g><path d="M 2.84375 0 L 0.515625 0 L 0.515625 -4.0625 L 2.84375 -4.0625 L 2.84375 -3.359375 L 1.375 -3.359375 L 1.375 -2.46875 L 2.75 -2.46875 L 2.75 -1.765625 L 1.375 -1.765625 L 1.375 -0.71875 L 2.84375 -0.71875 Z M 2.84375 0 "/></g></g></g><g fill="#070707" fill-opacity="1"><g transform="translate(42.974722, 46.195947)"><g><path d="M 4.109375 0 L 3.015625 0 L 1.25 -3.078125 L 1.234375 -3.078125 C 1.265625 -2.523438 1.28125 -2.132812 1.28125 -1.90625 L 1.28125 0 L 0.515625 0 L 0.515625 -4.0625 L 1.59375 -4.0625 L 3.359375 -1.015625 L 3.375 -1.015625 C 3.351562 -1.546875 3.34375 -1.921875 3.34375 -2.140625 L 3.34375 -4.0625 L 4.109375 -4.0625 Z M 4.109375 0 "/></g></g></g><g fill="#070707" fill-opacity="1"><g transform="translate(50.954895, 46.195947)"><g><path d="M 2.828125 -4.0625 L 3.703125 -4.0625 L 2.3125 0 L 1.375 0 L 0 -4.0625 L 0.875 -4.0625 L 1.640625 -1.640625 C 1.679688 -1.503906 1.722656 -1.335938 1.765625 -1.140625 C 1.804688 -0.953125 1.832031 -0.820312 1.84375 -0.75 C 1.863281 -0.914062 1.9375 -1.210938 2.0625 -1.640625 Z M 2.828125 -4.0625 "/></g></g></g><g fill="#070707" fill-opacity="1"><g transform="translate(58.008102, 46.195947)"><g><path d="M 4.203125 -2.03125 C 4.203125 -1.363281 4.035156 -0.847656 3.703125 -0.484375 C 3.367188 -0.117188 2.890625 0.0625 2.265625 0.0625 C 1.640625 0.0625 1.160156 -0.117188 0.828125 -0.484375 C 0.492188 -0.847656 0.328125 -1.367188 0.328125 -2.046875 C 0.328125 -2.722656 0.492188 -3.238281 0.828125 -3.59375 C 1.160156 -3.945312 1.640625 -4.125 2.265625 -4.125 C 2.890625 -4.125 3.367188 -3.941406 3.703125 -3.578125 C 4.035156 -3.222656 4.203125 -2.707031 4.203125 -2.03125 Z M 1.234375 -2.03125 C 1.234375 -1.582031 1.316406 -1.242188 1.484375 -1.015625 C 1.660156 -0.785156 1.921875 -0.671875 2.265625 -0.671875 C 2.953125 -0.671875 3.296875 -1.125 3.296875 -2.03125 C 3.296875 -2.945312 2.953125 -3.40625 2.265625 -3.40625 C 1.921875 -3.40625 1.660156 -3.289062 1.484375 -3.0625 C 1.316406 -2.832031 1.234375 -2.488281 1.234375 -2.03125 Z M 1.234375 -2.03125 "/></g></g></g><g fill="#070707" fill-opacity="1"><g transform="translate(65.891136, 46.195947)"><g><path d="M 0.515625 0 L 0.515625 -4.0625 L 1.375 -4.0625 L 1.375 -0.71875 L 3.015625 -0.71875 L 3.015625 0 Z M 0.515625 0 "/></g></g></g><g fill="#070707" fill-opacity="1"><g transform="translate(72.46143, 46.195947)"><g><path d="M 2.828125 -4.0625 L 3.703125 -4.0625 L 2.3125 0 L 1.375 0 L 0 -4.0625 L 0.875 -4.0625 L 1.640625 -1.640625 C 1.679688 -1.503906 1.722656 -1.335938 1.765625 -1.140625 C 1.804688 -0.953125 1.832031 -0.820312 1.84375 -0.75 C 1.863281 -0.914062 1.9375 -1.210938 2.0625 -1.640625 Z M 2.828125 -4.0625 "/></g></g></g><g fill="#070707" fill-opacity="1"><g transform="translate(79.514636, 46.195947)"><g><path d="M 0.515625 0 L 0.515625 -4.0625 L 1.375 -4.0625 L 1.375 0 Z M 0.515625 0 "/></g></g></g><g fill="#070707" fill-opacity="1"><g transform="translate(84.75553, 46.195947)"><g><path d="M 2.234375 0 L 1.25 -3.1875 L 1.234375 -3.1875 C 1.265625 -2.539062 1.28125 -2.109375 1.28125 -1.890625 L 1.28125 0 L 0.515625 0 L 0.515625 -4.0625 L 1.6875 -4.0625 L 2.640625 -0.953125 L 2.65625 -0.953125 L 3.671875 -4.0625 L 4.859375 -4.0625 L 4.859375 0 L 4.046875 0 L 4.046875 -1.921875 C 4.046875 -2.015625 4.046875 -2.117188 4.046875 -2.234375 C 4.054688 -2.347656 4.070312 -2.664062 4.09375 -3.1875 L 4.0625 -3.1875 L 3.015625 0 Z M 2.234375 0 "/></g></g></g><g fill="#070707" fill-opacity="1"><g transform="translate(93.473947, 46.195947)"><g><path d="M 2.84375 0 L 0.515625 0 L 0.515625 -4.0625 L 2.84375 -4.0625 L 2.84375 -3.359375 L 1.375 -3.359375 L 1.375 -2.46875 L 2.75 -2.46875 L 2.75 -1.765625 L 1.375 -1.765625 L 1.375 -0.71875 L 2.84375 -0.71875 Z M 2.84375 0 "/></g></g></g><g fill="#070707" fill-opacity="1"><g transform="translate(100.016484, 46.195947)"><g><path d="M 4.109375 0 L 3.015625 0 L 1.25 -3.078125 L 1.234375 -3.078125 C 1.265625 -2.523438 1.28125 -2.132812 1.28125 -1.90625 L 1.28125 0 L 0.515625 0 L 0.515625 -4.0625 L 1.59375 -4.0625 L 3.359375 -1.015625 L 3.375 -1.015625 C 3.351562 -1.546875 3.34375 -1.921875 3.34375 -2.140625 L 3.34375 -4.0625 L 4.109375 -4.0625 Z M 4.109375 0 "/></g></g></g><g fill="#070707" fill-opacity="1"><g transform="translate(107.996657, 46.195947)"><g><path d="M 2.078125 0 L 1.21875 0 L 1.21875 -3.34375 L 0.109375 -3.34375 L 0.109375 -4.0625 L 3.1875 -4.0625 L 3.1875 -3.34375 L 2.078125 -3.34375 Z M 2.078125 0 "/></g></g></g><g fill="#070707" fill-opacity="1"><g transform="translate(114.647432, 46.195947)"><g><path d="M 4.203125 -2.03125 C 4.203125 -1.363281 4.035156 -0.847656 3.703125 -0.484375 C 3.367188 -0.117188 2.890625 0.0625 2.265625 0.0625 C 1.640625 0.0625 1.160156 -0.117188 0.828125 -0.484375 C 0.492188 -0.847656 0.328125 -1.367188 0.328125 -2.046875 C 0.328125 -2.722656 0.492188 -3.238281 0.828125 -3.59375 C 1.160156 -3.945312 1.640625 -4.125 2.265625 -4.125 C 2.890625 -4.125 3.367188 -3.941406 3.703125 -3.578125 C 4.035156 -3.222656 4.203125 -2.707031 4.203125 -2.03125 Z M 1.234375 -2.03125 C 1.234375 -1.582031 1.316406 -1.242188 1.484375 -1.015625 C 1.660156 -0.785156 1.921875 -0.671875 2.265625 -0.671875 C 2.953125 -0.671875 3.296875 -1.125 3.296875 -2.03125 C 3.296875 -2.945312 2.953125 -3.40625 2.265625 -3.40625 C 1.921875 -3.40625 1.660156 -3.289062 1.484375 -3.0625 C 1.316406 -2.832031 1.234375 -2.488281 1.234375 -2.03125 Z M 1.234375 -2.03125 "/></g></g></g><g fill="#070707" fill-opacity="1"><g transform="translate(44.88533, 28.953082)"><g><path d="M 11.71875 -7.140625 C 12.5 -6.890625 13.113281 -6.472656 13.5625 -5.890625 C 14.007812 -5.316406 14.234375 -4.601562 14.234375 -3.75 C 14.234375 -2.539062 13.765625 -1.613281 12.828125 -0.96875 C 11.890625 -0.320312 10.523438 0 8.734375 0 L 1.625 0 L 1.625 -13.734375 L 8.34375 -13.734375 C 10.019531 -13.734375 11.304688 -13.410156 12.203125 -12.765625 C 13.097656 -12.128906 13.546875 -11.265625 13.546875 -10.171875 C 13.546875 -9.503906 13.382812 -8.90625 13.0625 -8.375 C 12.738281 -7.851562 12.289062 -7.441406 11.71875 -7.140625 Z M 4.78125 -11.34375 L 4.78125 -8.109375 L 7.953125 -8.109375 C 8.734375 -8.109375 9.328125 -8.242188 9.734375 -8.515625 C 10.140625 -8.785156 10.34375 -9.191406 10.34375 -9.734375 C 10.34375 -10.265625 10.140625 -10.664062 9.734375 -10.9375 C 9.328125 -11.207031 8.734375 -11.34375 7.953125 -11.34375 Z M 8.5 -2.390625 C 9.332031 -2.390625 9.960938 -2.523438 10.390625 -2.796875 C 10.816406 -3.078125 11.03125 -3.503906 11.03125 -4.078125 C 11.03125 -5.222656 10.1875 -5.796875 8.5 -5.796875 L 4.78125 -5.796875 L 4.78125 -2.390625 Z M 8.5 -2.390625 "/></g></g></g><g fill="#070707" fill-opacity="1"><g transform="translate(59.505086, 28.953082)"><g><path d="M 10.375 0 L 7.734375 -3.828125 L 4.8125 -3.828125 L 4.8125 0 L 1.625 0 L 1.625 -13.734375 L 7.578125 -13.734375 C 8.796875 -13.734375 9.851562 -13.53125 10.75 -13.125 C 11.644531 -12.71875 12.332031 -12.140625 12.8125 -11.390625 C 13.300781 -10.648438 13.546875 -9.769531 13.546875 -8.75 C 13.546875 -7.726562 13.296875 -6.847656 12.796875 -6.109375 C 12.304688 -5.367188 11.613281 -4.804688 10.71875 -4.421875 L 13.796875 0 Z M 10.328125 -8.75 C 10.328125 -9.519531 10.078125 -10.109375 9.578125 -10.515625 C 9.078125 -10.929688 8.351562 -11.140625 7.40625 -11.140625 L 4.8125 -11.140625 L 4.8125 -6.359375 L 7.40625 -6.359375 C 8.351562 -6.359375 9.078125 -6.566406 9.578125 -6.984375 C 10.078125 -7.398438 10.328125 -7.988281 10.328125 -8.75 Z M 10.328125 -8.75 "/></g></g></g><g fill="#070707" fill-opacity="1"><g transform="translate(73.536113, 28.953082)"><g><path d="M 8.28125 0.234375 C 6.851562 0.234375 5.566406 -0.0703125 4.421875 -0.6875 C 3.273438 -1.300781 2.378906 -2.144531 1.734375 -3.21875 C 1.085938 -4.300781 0.765625 -5.519531 0.765625 -6.875 C 0.765625 -8.21875 1.085938 -9.425781 1.734375 -10.5 C 2.378906 -11.582031 3.273438 -12.429688 4.421875 -13.046875 C 5.566406 -13.660156 6.851562 -13.96875 8.28125 -13.96875 C 9.707031 -13.96875 10.988281 -13.660156 12.125 -13.046875 C 13.257812 -12.429688 14.15625 -11.582031 14.8125 -10.5 C 15.46875 -9.425781 15.796875 -8.21875 15.796875 -6.875 C 15.796875 -5.519531 15.46875 -4.300781 14.8125 -3.21875 C 14.15625 -2.144531 13.257812 -1.300781 12.125 -0.6875 C 10.988281 -0.0703125 9.707031 0.234375 8.28125 0.234375 Z M 8.28125 -2.46875 C 9.09375 -2.46875 9.828125 -2.65625 10.484375 -3.03125 C 11.140625 -3.40625 11.648438 -3.925781 12.015625 -4.59375 C 12.390625 -5.257812 12.578125 -6.019531 12.578125 -6.875 C 12.578125 -7.71875 12.390625 -8.472656 12.015625 -9.140625 C 11.648438 -9.804688 11.140625 -10.328125 10.484375 -10.703125 C 9.828125 -11.078125 9.09375 -11.265625 8.28125 -11.265625 C 7.46875 -11.265625 6.734375 -11.078125 6.078125 -10.703125 C 5.429688 -10.328125 4.921875 -9.804688 4.546875 -9.140625 C 4.171875 -8.472656 3.984375 -7.71875 3.984375 -6.875 C 3.984375 -6.019531 4.171875 -5.257812 4.546875 -4.59375 C 4.921875 -3.925781 5.429688 -3.40625 6.078125 -3.03125 C 6.734375 -2.65625 7.46875 -2.46875 8.28125 -2.46875 Z M 8.28125 -2.46875 "/></g></g></g></svg>