<svg xmlns="http://www.w3.org/2000/svg" xmlns:xlink="http://www.w3.org/1999/xlink" width="40" zoomAndPan="magnify" viewBox="0 0 30 30.000001" height="40" preserveAspectRatio="xMidYMid meet" version="1.0"><defs><clipPath id="862277b893"><path d="M 1 0 L 29.515625 0 L 29.515625 29 L 1 29 Z M 1 0 " clip-rule="nonzero"/></clipPath><clipPath id="197fd708fc"><path d="M 10 5 L 29.515625 5 L 29.515625 21 L 10 21 Z M 10 5 " clip-rule="nonzero"/></clipPath></defs><g clip-path="url(#862277b893)"><path fill="#472562" d="M 28.660156 6.246094 C 27.722656 4.367188 25.84375 3.351562 24.679688 2.722656 C 19.648438 0.00390625 12.792969 0.726562 8.238281 3.265625 C 3.742188 5.769531 -0.175781 11.695312 1.464844 18.136719 C 3.117188 24.605469 9.535156 27.929688 14.386719 28.632812 C 22.097656 29.753906 28.574219 24.660156 28.929688 22.894531 C 29.039062 22.347656 29.007812 21.867188 29.007812 21.867188 C 28.871094 20.589844 27.8125 19.832031 27.566406 16.925781 C 27.113281 11.574219 30.308594 9.539062 28.660156 6.246094 " fill-opacity="1" fill-rule="nonzero"/></g><g clip-path="url(#197fd708fc)"><path fill="#6f129d" d="M 28.433594 20.464844 L 11.890625 18.183594 C 11.476562 18.132812 11.164062 17.78125 11.164062 17.367188 L 10.9375 5.933594 C 10.9375 5.933594 11.316406 5.664062 11.53125 5.558594 C 11.636719 5.507812 11.761719 5.484375 11.894531 5.5 L 28.386719 7.585938 C 28.804688 7.636719 29.113281 7.988281 29.113281 8.402344 L 29.113281 19.632812 C 29.113281 19.835938 29.019531 20.011719 28.878906 20.128906 C 28.746094 20.238281 28.433594 20.464844 28.433594 20.464844 " fill-opacity="1" fill-rule="nonzero"/></g><path fill="#8400d3" d="M 27.929688 20.617188 L 11.402344 18.527344 C 10.988281 18.476562 10.675781 18.125 10.675781 17.707031 L 10.675781 6.457031 C 10.675781 6.070312 11.019531 5.769531 11.40625 5.820312 L 27.929688 7.90625 C 28.347656 7.960938 28.660156 8.3125 28.660156 8.726562 L 28.660156 19.980469 C 28.660156 20.367188 28.316406 20.664062 27.929688 20.617188 " fill-opacity="1" fill-rule="nonzero"/><path fill="#8400d3" d="M 18.308594 26.996094 L 1.34375 24.828125 C 1.210938 24.8125 1.136719 24.703125 1.136719 24.589844 C 1.140625 24.515625 1.144531 23.980469 1.144531 23.980469 L 10.117188 18.898438 C 10.566406 18.644531 11.144531 18.546875 11.660156 18.613281 L 28.410156 20.753906 C 28.507812 20.765625 28.597656 20.832031 28.636719 20.921875 L 28.664062 20.984375 C 28.664062 20.984375 28.648438 21.433594 28.652344 21.535156 C 28.660156 21.617188 28.621094 21.703125 28.535156 21.75 L 19.792969 26.707031 C 19.34375 26.960938 18.820312 27.0625 18.308594 26.996094 " fill-opacity="1" fill-rule="nonzero"/><path fill="#ffffff" d="M 18.308594 26.402344 L 1.40625 24.238281 C 1.179688 24.207031 1.121094 23.914062 1.316406 23.800781 L 10.015625 18.878906 C 10.464844 18.625 10.984375 18.523438 11.5 18.589844 L 28.402344 20.753906 C 28.625 20.78125 28.683594 21.074219 28.488281 21.1875 L 19.792969 26.109375 C 19.34375 26.363281 18.820312 26.464844 18.308594 26.402344 " fill-opacity="1" fill-rule="nonzero"/><path fill="#472562" d="M 18.3125 26.351562 C 18.8125 26.414062 19.328125 26.3125 19.765625 26.066406 L 28.464844 21.144531 C 28.546875 21.09375 28.566406 21.011719 28.554688 20.949219 C 28.539062 20.886719 28.492188 20.816406 28.394531 20.800781 L 11.492188 18.636719 C 10.992188 18.574219 10.476562 18.675781 10.039062 18.921875 L 1.34375 23.847656 C 1.257812 23.894531 1.242188 23.980469 1.253906 24.042969 C 1.265625 24.105469 1.3125 24.175781 1.410156 24.1875 Z M 18.605469 26.46875 C 18.503906 26.46875 18.402344 26.464844 18.300781 26.449219 L 1.398438 24.285156 C 1.273438 24.269531 1.179688 24.183594 1.152344 24.0625 C 1.128906 23.9375 1.183594 23.820312 1.292969 23.757812 L 9.992188 18.835938 C 10.445312 18.578125 10.984375 18.472656 11.503906 18.539062 L 28.40625 20.703125 C 28.53125 20.71875 28.628906 20.808594 28.652344 20.929688 C 28.675781 21.050781 28.621094 21.167969 28.511719 21.230469 L 19.816406 26.152344 C 19.449219 26.359375 19.027344 26.46875 18.605469 26.46875 " fill-opacity="1" fill-rule="nonzero"/><path fill="#8400d3" d="M 21.617188 23.667969 L 6.960938 21.777344 C 6.757812 21.753906 6.703125 21.488281 6.882812 21.386719 L 10.328125 19.457031 C 10.734375 19.226562 11.203125 19.132812 11.667969 19.191406 L 26.324219 21.082031 C 26.527344 21.109375 26.582031 21.375 26.402344 21.472656 L 22.957031 23.40625 C 22.550781 23.636719 22.082031 23.726562 21.617188 23.667969 " fill-opacity="1" fill-rule="nonzero"/><path fill="#8400d3" d="M 13.199219 24.839844 L 9.664062 24.390625 C 9.574219 24.378906 9.546875 24.257812 9.628906 24.214844 L 11.175781 23.347656 C 11.359375 23.242188 11.570312 23.203125 11.777344 23.226562 L 15.316406 23.675781 C 15.40625 23.6875 15.429688 23.808594 15.351562 23.851562 L 13.804688 24.722656 C 13.621094 24.824219 13.410156 24.867188 13.199219 24.839844 " fill-opacity="1" fill-rule="nonzero"/><path fill="#ffffff" d="M 9.734375 12.300781 L 2.542969 11.390625 C 2.40625 11.375 2.304688 11.257812 2.304688 11.121094 L 2.304688 1.121094 C 2.304688 1.003906 2.40625 0.914062 2.523438 0.929688 L 8.601562 1.695312 L 9.957031 3.320312 L 9.957031 12.105469 C 9.957031 12.222656 9.851562 12.3125 9.734375 12.300781 " fill-opacity="1" fill-rule="nonzero"/><path fill="#6f129d" d="M 3.1875 11.523438 C 3.183594 11.523438 3.183594 11.523438 3.179688 11.523438 L 2.539062 11.441406 C 2.375 11.421875 2.253906 11.28125 2.253906 11.121094 L 2.253906 1.121094 C 2.253906 1.050781 2.28125 0.984375 2.335938 0.9375 C 2.390625 0.890625 2.460938 0.871094 2.53125 0.878906 L 8.628906 1.648438 L 10.003906 3.300781 L 10.003906 5.484375 C 10.003906 5.511719 9.984375 5.535156 9.953125 5.535156 C 9.925781 5.535156 9.90625 5.511719 9.90625 5.484375 L 9.90625 3.335938 L 8.574219 1.742188 L 2.519531 0.980469 C 2.476562 0.972656 2.433594 0.984375 2.402344 1.011719 C 2.371094 1.042969 2.351562 1.082031 2.351562 1.121094 L 2.351562 11.121094 C 2.351562 11.230469 2.4375 11.328125 2.550781 11.339844 L 3.191406 11.421875 C 3.222656 11.425781 3.242188 11.449219 3.238281 11.480469 C 3.234375 11.503906 3.210938 11.523438 3.1875 11.523438 " fill-opacity="1" fill-rule="nonzero"/><path fill="#6f129d" d="M 9.945312 3.378906 C 9.941406 3.378906 9.941406 3.378906 9.9375 3.378906 L 8.613281 3.210938 C 8.570312 3.203125 8.542969 3.171875 8.542969 3.128906 L 8.542969 1.714844 C 8.542969 1.6875 8.5625 1.664062 8.59375 1.664062 C 8.621094 1.664062 8.640625 1.6875 8.640625 1.714844 L 8.640625 3.113281 L 9.953125 3.277344 C 9.980469 3.28125 10 3.304688 9.996094 3.332031 C 9.992188 3.359375 9.96875 3.378906 9.945312 3.378906 " fill-opacity="1" fill-rule="nonzero"/><path fill="#8400d3" d="M 3.441406 5.34375 L 3.523438 5.535156 C 3.527344 5.546875 3.539062 5.558594 3.554688 5.5625 L 3.75 5.617188 C 3.785156 5.628906 3.796875 5.675781 3.765625 5.699219 L 3.625 5.816406 C 3.613281 5.824219 3.609375 5.839844 3.609375 5.855469 L 3.632812 6.046875 C 3.640625 6.085938 3.59375 6.113281 3.5625 6.089844 L 3.402344 5.980469 C 3.390625 5.972656 3.371094 5.96875 3.359375 5.976562 L 3.183594 6.042969 C 3.148438 6.058594 3.113281 6.027344 3.121094 5.992188 L 3.164062 5.792969 C 3.164062 5.777344 3.160156 5.765625 3.152344 5.753906 L 3.019531 5.59375 C 2.992188 5.566406 3.011719 5.519531 3.054688 5.519531 L 3.230469 5.515625 C 3.25 5.515625 3.265625 5.507812 3.273438 5.492188 L 3.359375 5.335938 C 3.378906 5.304688 3.425781 5.304688 3.441406 5.34375 " fill-opacity="1" fill-rule="nonzero"/><path fill="#8400d3" d="M 4.347656 5.453125 L 4.425781 5.644531 C 4.433594 5.65625 4.441406 5.667969 4.457031 5.671875 L 4.652344 5.730469 C 4.691406 5.738281 4.699219 5.785156 4.671875 5.808594 L 4.53125 5.925781 C 4.515625 5.9375 4.511719 5.953125 4.511719 5.96875 L 4.539062 6.15625 C 4.542969 6.195312 4.5 6.222656 4.464844 6.203125 L 4.304688 6.089844 C 4.292969 6.082031 4.277344 6.078125 4.261719 6.085938 L 4.089844 6.152344 C 4.054688 6.167969 4.019531 6.136719 4.023438 6.101562 L 4.066406 5.902344 C 4.070312 5.890625 4.066406 5.875 4.054688 5.863281 L 3.921875 5.707031 C 3.894531 5.675781 3.917969 5.628906 3.957031 5.628906 L 4.136719 5.628906 C 4.152344 5.628906 4.167969 5.617188 4.175781 5.605469 L 4.261719 5.449219 C 4.28125 5.414062 4.332031 5.417969 4.347656 5.453125 " fill-opacity="1" fill-rule="nonzero"/><path fill="#8400d3" d="M 5.25 5.5625 L 5.328125 5.753906 C 5.335938 5.769531 5.347656 5.777344 5.359375 5.78125 L 5.558594 5.839844 C 5.59375 5.851562 5.601562 5.894531 5.574219 5.917969 L 5.433594 6.035156 C 5.421875 6.046875 5.414062 6.0625 5.417969 6.078125 L 5.441406 6.269531 C 5.445312 6.308594 5.402344 6.335938 5.367188 6.3125 L 5.207031 6.203125 C 5.195312 6.191406 5.179688 6.191406 5.164062 6.195312 L 4.992188 6.265625 C 4.957031 6.277344 4.921875 6.25 4.929688 6.210938 L 4.96875 6.015625 C 4.972656 6 4.96875 5.984375 4.960938 5.976562 L 4.824219 5.816406 C 4.800781 5.785156 4.820312 5.742188 4.859375 5.742188 L 5.039062 5.738281 C 5.054688 5.738281 5.070312 5.730469 5.078125 5.714844 L 5.164062 5.558594 C 5.183594 5.523438 5.234375 5.527344 5.25 5.5625 " fill-opacity="1" fill-rule="nonzero"/><path fill="#8400d3" d="M 6.152344 5.675781 L 6.234375 5.867188 C 6.238281 5.878906 6.25 5.890625 6.261719 5.894531 L 6.460938 5.949219 C 6.496094 5.960938 6.507812 6.007812 6.476562 6.03125 L 6.335938 6.148438 C 6.324219 6.15625 6.316406 6.171875 6.320312 6.1875 L 6.34375 6.378906 C 6.351562 6.417969 6.304688 6.445312 6.273438 6.421875 L 6.113281 6.3125 C 6.097656 6.304688 6.082031 6.300781 6.066406 6.308594 L 5.894531 6.375 C 5.859375 6.390625 5.824219 6.359375 5.832031 6.324219 L 5.871094 6.125 C 5.875 6.109375 5.871094 6.097656 5.863281 6.085938 L 5.726562 5.925781 C 5.703125 5.898438 5.722656 5.851562 5.761719 5.851562 L 5.941406 5.847656 C 5.960938 5.847656 5.976562 5.839844 5.984375 5.824219 L 6.070312 5.667969 C 6.085938 5.636719 6.136719 5.636719 6.152344 5.675781 " fill-opacity="1" fill-rule="nonzero"/><path fill="#472562" d="M 7.054688 5.785156 L 7.136719 5.976562 C 7.140625 5.992188 7.152344 6 7.167969 6.003906 L 7.363281 6.0625 C 7.398438 6.070312 7.410156 6.117188 7.382812 6.140625 L 7.238281 6.257812 C 7.226562 6.269531 7.222656 6.285156 7.222656 6.300781 L 7.25 6.488281 C 7.253906 6.53125 7.207031 6.554688 7.175781 6.535156 L 7.015625 6.421875 C 7.003906 6.414062 6.988281 6.414062 6.972656 6.417969 L 6.796875 6.484375 C 6.765625 6.5 6.726562 6.46875 6.734375 6.433594 L 6.777344 6.234375 C 6.777344 6.222656 6.777344 6.207031 6.765625 6.195312 L 6.632812 6.039062 C 6.605469 6.007812 6.628906 5.960938 6.667969 5.960938 L 6.847656 5.960938 C 6.863281 5.960938 6.878906 5.949219 6.886719 5.9375 L 6.972656 5.78125 C 6.992188 5.746094 7.042969 5.75 7.054688 5.785156 " fill-opacity="1" fill-rule="nonzero"/><path fill="#ffffff" d="M 3.03125 3.457031 C 3.074219 4.265625 3.71875 4.890625 4.476562 4.855469 C 5.234375 4.816406 5.8125 4.132812 5.773438 3.320312 C 5.734375 2.511719 5.085938 1.886719 4.332031 1.921875 C 3.574219 1.960938 2.992188 2.648438 3.03125 3.457031 " fill-opacity="1" fill-rule="nonzero"/><path fill="#8400d3" d="M 3.484375 3.480469 C 4.179688 3.113281 4.976562 3.496094 5.382812 3.871094 C 5.464844 3.945312 5.535156 4.035156 5.59375 4.125 C 5.371094 4.542969 4.960938 4.832031 4.476562 4.855469 C 3.90625 4.882812 3.398438 4.535156 3.167969 4.015625 C 3.210938 3.789062 3.300781 3.574219 3.484375 3.480469 " fill-opacity="1" fill-rule="nonzero"/><path fill="#6f129d" d="M 4.78125 3.25 C 5.003906 3.210938 5.136719 2.992188 5.050781 2.800781 C 4.90625 2.488281 4.78125 2.125 4.355469 2.132812 C 3.910156 2.144531 3.757812 2.535156 3.707031 2.925781 C 3.679688 3.140625 3.878906 3.3125 4.105469 3.273438 L 4.78125 3.25 " fill-opacity="1" fill-rule="nonzero"/><path fill="#ffffff" d="M 4.183594 2.761719 L 4.148438 3.355469 C 4.144531 3.421875 4.097656 3.476562 4.03125 3.492188 C 4.015625 3.496094 3.996094 3.5 3.976562 3.507812 C 3.863281 3.539062 3.839844 3.6875 3.941406 3.753906 C 4.121094 3.867188 4.402344 3.988281 4.738281 3.90625 C 4.859375 3.875 4.878906 3.710938 4.765625 3.652344 L 4.710938 3.621094 C 4.625 3.578125 4.570312 3.488281 4.578125 3.390625 L 4.574219 2.816406 L 4.183594 2.761719 " fill-opacity="1" fill-rule="nonzero"/><path fill="#6f129d" d="M 4.230469 2.820312 L 4.199219 3.355469 C 4.195312 3.445312 4.132812 3.519531 4.042969 3.539062 C 4.027344 3.546875 4.007812 3.550781 3.988281 3.554688 C 3.957031 3.566406 3.933594 3.589844 3.929688 3.625 C 3.921875 3.660156 3.9375 3.691406 3.96875 3.710938 C 4.140625 3.820312 4.410156 3.933594 4.726562 3.855469 C 4.777344 3.84375 4.789062 3.796875 4.789062 3.785156 C 4.792969 3.753906 4.78125 3.71875 4.742188 3.695312 L 4.6875 3.667969 C 4.582031 3.613281 4.519531 3.503906 4.527344 3.386719 L 4.523438 2.859375 Z M 4.511719 3.984375 C 4.265625 3.984375 4.054688 3.886719 3.914062 3.792969 C 3.847656 3.753906 3.816406 3.683594 3.828125 3.609375 C 3.839844 3.535156 3.890625 3.480469 3.960938 3.457031 C 3.980469 3.453125 4 3.449219 4.019531 3.441406 C 4.066406 3.433594 4.097656 3.394531 4.097656 3.351562 L 4.136719 2.707031 L 4.621094 2.769531 L 4.628906 3.390625 C 4.625 3.46875 4.664062 3.542969 4.734375 3.578125 L 4.789062 3.609375 C 4.859375 3.644531 4.898438 3.71875 4.890625 3.796875 C 4.878906 3.871094 4.824219 3.933594 4.75 3.953125 C 4.667969 3.972656 4.589844 3.984375 4.511719 3.984375 " fill-opacity="1" fill-rule="nonzero"/><path fill="#ffffff" d="M 4.347656 2.484375 L 4.570312 2.605469 C 4.632812 2.640625 4.667969 2.707031 4.660156 2.777344 C 4.636719 2.914062 4.585938 3.128906 4.441406 3.15625 C 4.226562 3.191406 4.144531 2.882812 4.144531 2.882812 C 4.144531 2.882812 4.074219 2.875 4.039062 2.820312 C 3.988281 2.742188 3.988281 2.585938 4.136719 2.613281 L 4.15625 2.5625 C 4.191406 2.496094 4.273438 2.460938 4.347656 2.484375 " fill-opacity="1" fill-rule="nonzero"/><path fill="#6f129d" d="M 4.101562 2.660156 C 4.078125 2.660156 4.070312 2.667969 4.070312 2.671875 C 4.050781 2.699219 4.058594 2.757812 4.082031 2.792969 C 4.105469 2.824219 4.152344 2.832031 4.152344 2.832031 L 4.1875 2.839844 L 4.195312 2.871094 C 4.195312 2.875 4.265625 3.136719 4.433594 3.105469 C 4.550781 3.082031 4.59375 2.863281 4.609375 2.769531 C 4.617188 2.722656 4.589844 2.671875 4.546875 2.648438 L 4.328125 2.53125 C 4.277344 2.515625 4.226562 2.539062 4.203125 2.585938 L 4.164062 2.667969 L 4.125 2.660156 C 4.117188 2.660156 4.109375 2.660156 4.101562 2.660156 Z M 4.402344 3.207031 C 4.21875 3.207031 4.132812 3.003906 4.105469 2.925781 C 4.074219 2.914062 4.027344 2.894531 3.996094 2.847656 C 3.957031 2.785156 3.941406 2.683594 3.984375 2.617188 C 4 2.59375 4.035156 2.558594 4.105469 2.558594 L 4.113281 2.542969 C 4.15625 2.449219 4.265625 2.40625 4.363281 2.4375 L 4.371094 2.441406 L 4.597656 2.5625 C 4.675781 2.605469 4.722656 2.695312 4.707031 2.785156 C 4.683594 2.960938 4.617188 3.175781 4.449219 3.203125 C 4.433594 3.207031 4.417969 3.207031 4.402344 3.207031 " fill-opacity="1" fill-rule="nonzero"/><path fill="#6f129d" d="M 4.394531 1.972656 C 4.375 1.972656 4.351562 1.972656 4.332031 1.972656 C 3.980469 1.992188 3.65625 2.152344 3.421875 2.433594 C 3.183594 2.710938 3.066406 3.074219 3.082031 3.453125 C 3.121094 4.234375 3.746094 4.839844 4.472656 4.804688 C 5.203125 4.769531 5.761719 4.105469 5.722656 3.324219 C 5.683594 2.566406 5.09375 1.972656 4.394531 1.972656 Z M 4.414062 4.90625 C 3.65625 4.90625 3.023438 4.269531 2.980469 3.457031 C 2.960938 3.054688 3.089844 2.667969 3.34375 2.367188 C 3.597656 2.066406 3.949219 1.890625 4.328125 1.875 C 5.109375 1.835938 5.78125 2.484375 5.824219 3.320312 C 5.867188 4.15625 5.261719 4.867188 4.480469 4.90625 C 4.457031 4.90625 4.433594 4.90625 4.414062 4.90625 " fill-opacity="1" fill-rule="nonzero"/><path fill="#472562" d="M 6.335938 3.984375 C 6.335938 4.046875 6.382812 4.101562 6.445312 4.109375 L 7.75 4.269531 C 7.824219 4.28125 7.890625 4.222656 7.890625 4.144531 C 7.890625 4.082031 7.84375 4.027344 7.78125 4.019531 L 6.476562 3.859375 C 6.402344 3.847656 6.335938 3.90625 6.335938 3.984375 " fill-opacity="1" fill-rule="nonzero"/><path fill="#472562" d="M 8.53125 4.261719 C 8.53125 4.324219 8.582031 4.375 8.644531 4.382812 L 9.167969 4.449219 C 9.242188 4.457031 9.308594 4.398438 9.308594 4.324219 C 9.308594 4.261719 9.261719 4.207031 9.199219 4.199219 L 8.675781 4.136719 C 8.597656 4.125 8.53125 4.183594 8.53125 4.261719 " fill-opacity="1" fill-rule="nonzero"/><path fill="#472562" d="M 8.398438 3.65625 C 8.398438 3.59375 8.351562 3.539062 8.285156 3.53125 L 6.476562 3.308594 C 6.402344 3.296875 6.335938 3.355469 6.335938 3.433594 C 6.335938 3.496094 6.382812 3.550781 6.445312 3.558594 L 8.253906 3.78125 C 8.332031 3.789062 8.398438 3.730469 8.398438 3.65625 " fill-opacity="1" fill-rule="nonzero"/><path fill="#472562" d="M 9.308594 4.875 C 9.308594 4.8125 9.261719 4.757812 9.199219 4.75 L 6.476562 4.410156 C 6.402344 4.402344 6.335938 4.457031 6.335938 4.535156 C 6.335938 4.597656 6.382812 4.652344 6.445312 4.660156 L 9.167969 5 C 9.242188 5.007812 9.308594 4.949219 9.308594 4.875 " fill-opacity="1" fill-rule="nonzero"/><path fill="#ffffff" d="M 15.972656 18.1875 L 8.429688 17.234375 C 8.285156 17.214844 8.175781 17.09375 8.175781 16.949219 L 8.175781 6.457031 C 8.175781 6.332031 8.285156 6.238281 8.410156 6.253906 L 16.203125 7.246094 L 16.207031 17.984375 C 16.207031 18.109375 16.097656 18.203125 15.972656 18.1875 " fill-opacity="1" fill-rule="nonzero"/><path fill="#6f129d" d="M 8.175781 10.054688 C 8.148438 10.054688 8.125 10.03125 8.125 10.003906 L 8.125 6.457031 C 8.125 6.382812 8.15625 6.3125 8.210938 6.265625 C 8.269531 6.21875 8.34375 6.195312 8.414062 6.203125 L 10.984375 6.527344 C 11.011719 6.53125 11.03125 6.558594 11.027344 6.585938 C 11.023438 6.613281 10.996094 6.632812 10.96875 6.628906 L 8.402344 6.304688 C 8.359375 6.296875 8.3125 6.3125 8.28125 6.339844 C 8.246094 6.371094 8.226562 6.414062 8.226562 6.457031 L 8.226562 10.003906 C 8.226562 10.03125 8.203125 10.054688 8.175781 10.054688 " fill-opacity="1" fill-rule="nonzero"/><path fill="#8400d3" d="M 9.371094 10.851562 L 9.457031 11.050781 C 9.460938 11.066406 9.472656 11.078125 9.488281 11.082031 L 9.695312 11.140625 C 9.734375 11.152344 9.742188 11.199219 9.714844 11.222656 L 9.566406 11.347656 C 9.550781 11.359375 9.546875 11.375 9.546875 11.390625 L 9.574219 11.589844 C 9.578125 11.632812 9.53125 11.660156 9.496094 11.636719 L 9.328125 11.519531 C 9.316406 11.511719 9.296875 11.507812 9.285156 11.515625 L 9.101562 11.585938 C 9.066406 11.601562 9.027344 11.570312 9.035156 11.53125 L 9.078125 11.324219 C 9.082031 11.308594 9.078125 11.292969 9.066406 11.28125 L 8.925781 11.117188 C 8.898438 11.085938 8.921875 11.039062 8.964844 11.035156 L 9.152344 11.035156 C 9.167969 11.035156 9.1875 11.023438 9.195312 11.007812 L 9.285156 10.847656 C 9.304688 10.808594 9.355469 10.8125 9.371094 10.851562 " fill-opacity="1" fill-rule="nonzero"/><path fill="#8400d3" d="M 10.320312 10.96875 L 10.40625 11.167969 C 10.410156 11.183594 10.421875 11.191406 10.4375 11.195312 L 10.644531 11.257812 C 10.679688 11.265625 10.691406 11.316406 10.660156 11.339844 L 10.511719 11.464844 C 10.5 11.476562 10.492188 11.492188 10.496094 11.507812 L 10.523438 11.707031 C 10.527344 11.75 10.480469 11.777344 10.445312 11.753906 L 10.277344 11.636719 C 10.265625 11.628906 10.246094 11.625 10.230469 11.632812 L 10.050781 11.703125 C 10.015625 11.71875 9.976562 11.6875 9.984375 11.648438 L 10.027344 11.441406 C 10.03125 11.425781 10.027344 11.410156 10.015625 11.398438 L 9.875 11.234375 C 9.847656 11.203125 9.871094 11.152344 9.910156 11.152344 L 10.101562 11.152344 C 10.117188 11.152344 10.132812 11.140625 10.140625 11.125 L 10.230469 10.960938 C 10.253906 10.925781 10.304688 10.929688 10.320312 10.96875 " fill-opacity="1" fill-rule="nonzero"/><path fill="#472562" d="M 11.269531 11.082031 L 11.351562 11.285156 C 11.359375 11.296875 11.371094 11.308594 11.382812 11.3125 L 11.59375 11.375 C 11.628906 11.382812 11.640625 11.433594 11.609375 11.457031 L 11.460938 11.582031 C 11.449219 11.589844 11.441406 11.605469 11.445312 11.625 L 11.46875 11.824219 C 11.476562 11.863281 11.429688 11.894531 11.394531 11.867188 L 11.226562 11.753906 C 11.210938 11.742188 11.195312 11.742188 11.179688 11.746094 L 11 11.820312 C 10.960938 11.832031 10.925781 11.800781 10.933594 11.765625 L 10.976562 11.554688 C 10.976562 11.542969 10.972656 11.527344 10.964844 11.515625 L 10.824219 11.347656 C 10.796875 11.316406 10.820312 11.269531 10.859375 11.269531 L 11.046875 11.265625 C 11.066406 11.265625 11.082031 11.257812 11.089844 11.242188 L 11.179688 11.078125 C 11.199219 11.042969 11.253906 11.046875 11.269531 11.082031 " fill-opacity="1" fill-rule="nonzero"/><path fill="#472562" d="M 12.21875 11.199219 L 12.300781 11.402344 C 12.308594 11.414062 12.320312 11.425781 12.332031 11.429688 L 12.539062 11.488281 C 12.578125 11.5 12.589844 11.546875 12.558594 11.574219 L 12.410156 11.695312 C 12.398438 11.707031 12.390625 11.722656 12.394531 11.738281 L 12.417969 11.9375 C 12.425781 11.980469 12.375 12.007812 12.34375 11.984375 L 12.175781 11.871094 C 12.160156 11.859375 12.144531 11.859375 12.128906 11.863281 L 11.945312 11.9375 C 11.910156 11.949219 11.871094 11.917969 11.878906 11.878906 L 11.921875 11.671875 C 11.925781 11.660156 11.921875 11.644531 11.914062 11.632812 L 11.769531 11.464844 C 11.746094 11.433594 11.765625 11.386719 11.808594 11.386719 L 11.996094 11.382812 C 12.015625 11.382812 12.03125 11.375 12.039062 11.359375 L 12.128906 11.195312 C 12.148438 11.160156 12.203125 11.164062 12.21875 11.199219 " fill-opacity="1" fill-rule="nonzero"/><path fill="#472562" d="M 13.164062 11.316406 L 13.25 11.519531 C 13.253906 11.53125 13.265625 11.542969 13.28125 11.546875 L 13.488281 11.605469 C 13.527344 11.617188 13.535156 11.664062 13.507812 11.6875 L 13.359375 11.8125 C 13.34375 11.824219 13.339844 11.839844 13.339844 11.855469 L 13.367188 12.054688 C 13.371094 12.097656 13.324219 12.125 13.289062 12.101562 L 13.121094 11.984375 C 13.109375 11.976562 13.089844 11.972656 13.078125 11.980469 L 12.894531 12.050781 C 12.859375 12.066406 12.820312 12.035156 12.828125 11.996094 L 12.871094 11.789062 C 12.875 11.773438 12.871094 11.757812 12.859375 11.75 L 12.71875 11.582031 C 12.691406 11.550781 12.714844 11.503906 12.757812 11.5 L 12.945312 11.5 C 12.960938 11.5 12.980469 11.488281 12.988281 11.472656 L 13.078125 11.3125 C 13.097656 11.277344 13.148438 11.277344 13.164062 11.316406 " fill-opacity="1" fill-rule="nonzero"/><path fill="#ffffff" d="M 8.941406 8.871094 C 8.984375 9.722656 9.664062 10.378906 10.457031 10.339844 C 11.25 10.300781 11.859375 9.582031 11.820312 8.730469 C 11.777344 7.882812 11.097656 7.222656 10.304688 7.261719 C 9.507812 7.300781 8.898438 8.023438 8.941406 8.871094 " fill-opacity="1" fill-rule="nonzero"/><path fill="#8400d3" d="M 9.527344 8.914062 C 10.210938 8.566406 10.980469 8.914062 11.40625 9.304688 C 11.492188 9.386719 11.566406 9.476562 11.632812 9.574219 C 11.398438 10.011719 10.964844 10.3125 10.457031 10.339844 C 9.859375 10.367188 9.328125 10.003906 9.082031 9.460938 C 9.152344 9.207031 9.332031 9.007812 9.527344 8.914062 " fill-opacity="1" fill-rule="nonzero"/><path fill="#6f129d" d="M 10.765625 7.625 C 10.714844 7.589844 10.65625 7.574219 10.59375 7.574219 L 10.230469 7.574219 C 10.152344 7.574219 10.074219 7.605469 10.015625 7.660156 L 9.996094 7.675781 C 9.902344 7.761719 9.867188 7.898438 9.910156 8.015625 L 10.03125 8.34375 L 10.792969 8.339844 L 10.898438 7.980469 C 10.941406 7.847656 10.886719 7.699219 10.765625 7.625 " fill-opacity="1" fill-rule="nonzero"/><path fill="#ffffff" d="M 10.585938 7.769531 C 10.585938 7.769531 10.582031 7.769531 10.582031 7.769531 L 10.027344 8.121094 L 10.027344 8.328125 C 10.027344 8.449219 10.085938 8.558594 10.171875 8.628906 L 10.171875 8.949219 C 10.171875 9.078125 10.277344 9.183594 10.40625 9.183594 C 10.535156 9.183594 10.640625 9.078125 10.640625 8.949219 L 10.640625 8.636719 C 10.734375 8.566406 10.796875 8.453125 10.796875 8.328125 L 10.796875 8.101562 C 10.796875 7.957031 10.710938 7.828125 10.585938 7.769531 " fill-opacity="1" fill-rule="nonzero"/><path fill="#6f129d" d="M 10.40625 9.234375 C 10.25 9.234375 10.121094 9.105469 10.121094 8.949219 L 10.121094 8.632812 C 10.121094 8.605469 10.144531 8.585938 10.171875 8.585938 C 10.199219 8.585938 10.222656 8.605469 10.222656 8.632812 L 10.222656 8.949219 C 10.222656 9.050781 10.304688 9.132812 10.40625 9.132812 C 10.507812 9.132812 10.589844 9.050781 10.589844 8.949219 L 10.589844 8.644531 C 10.589844 8.617188 10.613281 8.59375 10.640625 8.59375 C 10.667969 8.59375 10.691406 8.617188 10.691406 8.644531 L 10.691406 8.949219 C 10.691406 9.105469 10.5625 9.234375 10.40625 9.234375 " fill-opacity="1" fill-rule="nonzero"/><path fill="#6f129d" d="M 10.414062 8.761719 C 10.382812 8.761719 10.363281 8.738281 10.363281 8.710938 C 10.363281 8.683594 10.382812 8.660156 10.414062 8.660156 C 10.597656 8.660156 10.746094 8.511719 10.746094 8.328125 L 10.746094 8.101562 C 10.746094 7.925781 10.601562 7.785156 10.425781 7.785156 L 10.078125 7.785156 L 10.078125 8.328125 C 10.078125 8.457031 10.15625 8.578125 10.273438 8.628906 C 10.300781 8.640625 10.308594 8.671875 10.296875 8.699219 C 10.289062 8.722656 10.257812 8.734375 10.230469 8.722656 C 10.078125 8.652344 9.976562 8.496094 9.976562 8.328125 L 9.976562 7.683594 L 10.425781 7.683594 C 10.660156 7.683594 10.847656 7.871094 10.847656 8.101562 L 10.847656 8.328125 C 10.847656 8.566406 10.652344 8.761719 10.414062 8.761719 " fill-opacity="1" fill-rule="nonzero"/><path fill="#6f129d" d="M 10.371094 7.3125 C 10.347656 7.3125 10.328125 7.3125 10.304688 7.3125 C 9.9375 7.332031 9.597656 7.503906 9.347656 7.796875 C 9.097656 8.089844 8.972656 8.472656 8.992188 8.867188 C 9.03125 9.667969 9.652344 10.289062 10.390625 10.289062 C 10.410156 10.289062 10.433594 10.289062 10.453125 10.289062 C 10.824219 10.269531 11.164062 10.097656 11.414062 9.804688 C 11.660156 9.511719 11.789062 9.132812 11.769531 8.734375 C 11.730469 7.9375 11.109375 7.3125 10.371094 7.3125 Z M 10.390625 10.390625 C 9.597656 10.390625 8.933594 9.726562 8.890625 8.875 C 8.871094 8.449219 9.003906 8.042969 9.269531 7.730469 C 9.535156 7.417969 9.902344 7.230469 10.300781 7.210938 C 11.121094 7.171875 11.824219 7.851562 11.871094 8.726562 C 11.890625 9.152344 11.757812 9.558594 11.492188 9.871094 C 11.222656 10.1875 10.859375 10.371094 10.460938 10.390625 C 10.4375 10.390625 10.414062 10.390625 10.390625 10.390625 " fill-opacity="1" fill-rule="nonzero"/><path fill="#472562" d="M 12.417969 9.425781 C 12.417969 9.492188 12.46875 9.546875 12.535156 9.554688 L 13.890625 9.726562 C 13.972656 9.734375 14.042969 9.675781 14.042969 9.59375 C 14.042969 9.527344 13.992188 9.472656 13.925781 9.464844 L 12.570312 9.292969 C 12.488281 9.285156 12.417969 9.347656 12.417969 9.425781 " fill-opacity="1" fill-rule="nonzero"/><path fill="#472562" d="M 14.71875 9.71875 C 14.71875 9.78125 14.765625 9.839844 14.832031 9.847656 L 15.308594 9.910156 C 15.390625 9.921875 15.460938 9.859375 15.460938 9.78125 C 15.460938 9.714844 15.410156 9.660156 15.347656 9.652344 L 14.867188 9.585938 C 14.789062 9.574219 14.71875 9.636719 14.71875 9.71875 " fill-opacity="1" fill-rule="nonzero"/><path fill="#472562" d="M 14.582031 9.082031 C 14.582031 9.015625 14.53125 8.960938 14.464844 8.953125 L 12.566406 8.714844 C 12.488281 8.707031 12.417969 8.765625 12.417969 8.847656 C 12.417969 8.914062 12.46875 8.96875 12.535156 8.976562 L 14.433594 9.210938 C 14.511719 9.222656 14.582031 9.160156 14.582031 9.082031 " fill-opacity="1" fill-rule="nonzero"/><path fill="#472562" d="M 15.460938 10.359375 C 15.460938 10.292969 15.410156 10.238281 15.34375 10.230469 L 12.570312 9.875 C 12.488281 9.863281 12.417969 9.925781 12.417969 10.003906 C 12.417969 10.070312 12.46875 10.125 12.535156 10.132812 L 15.3125 10.492188 C 15.390625 10.5 15.460938 10.441406 15.460938 10.359375 " fill-opacity="1" fill-rule="nonzero"/><path fill="#ffffff" d="M 27.113281 18.425781 L 16.09375 17.03125 C 15.878906 17.007812 15.722656 16.828125 15.722656 16.617188 L 15.722656 1.289062 C 15.722656 1.109375 15.882812 0.96875 16.0625 0.992188 L 25.378906 2.167969 L 27.457031 4.65625 L 27.457031 18.128906 C 27.457031 18.308594 27.296875 18.449219 27.113281 18.425781 " fill-opacity="1" fill-rule="nonzero"/><path fill="#472562" d="M 16.023438 1.039062 C 15.964844 1.039062 15.90625 1.0625 15.859375 1.101562 C 15.804688 1.148438 15.773438 1.214844 15.773438 1.289062 L 15.773438 16.617188 C 15.773438 16.800781 15.914062 16.960938 16.097656 16.984375 L 27.121094 18.375 C 27.191406 18.386719 27.265625 18.363281 27.320312 18.316406 C 27.375 18.269531 27.40625 18.199219 27.40625 18.128906 L 27.40625 4.675781 L 25.355469 2.214844 L 16.054688 1.042969 C 16.046875 1.039062 16.035156 1.039062 16.023438 1.039062 Z M 27.152344 18.480469 C 27.136719 18.480469 27.125 18.476562 27.109375 18.476562 L 16.085938 17.082031 C 15.851562 17.054688 15.671875 16.851562 15.671875 16.617188 L 15.671875 1.289062 C 15.671875 1.1875 15.714844 1.09375 15.792969 1.027344 C 15.867188 0.960938 15.96875 0.929688 16.070312 0.941406 L 25.386719 2.117188 C 25.398438 2.121094 25.410156 2.128906 25.417969 2.136719 L 27.496094 4.625 C 27.5 4.632812 27.507812 4.644531 27.507812 4.65625 L 27.507812 18.128906 C 27.507812 18.230469 27.460938 18.324219 27.386719 18.390625 C 27.320312 18.449219 27.238281 18.480469 27.152344 18.480469 " fill-opacity="1" fill-rule="nonzero"/><path fill="#472562" d="M 27.402344 4.695312 C 27.398438 4.695312 27.398438 4.695312 27.394531 4.695312 L 25.40625 4.445312 C 25.359375 4.4375 25.324219 4.398438 25.324219 4.351562 L 25.324219 2.230469 C 25.324219 2.203125 25.34375 2.179688 25.375 2.179688 C 25.402344 2.179688 25.425781 2.203125 25.425781 2.230469 L 25.425781 4.347656 L 27.410156 4.597656 C 27.4375 4.601562 27.457031 4.625 27.453125 4.652344 C 27.449219 4.679688 27.425781 4.695312 27.402344 4.695312 " fill-opacity="1" fill-rule="nonzero"/><path fill="#8400d3" d="M 26.851562 5.1875 C 26.851562 5.09375 26.78125 5.019531 26.691406 5.007812 L 22.765625 4.507812 C 22.65625 4.496094 22.558594 4.582031 22.558594 4.691406 C 22.558594 4.785156 22.628906 4.863281 22.71875 4.875 L 26.644531 5.367188 C 26.753906 5.382812 26.851562 5.296875 26.851562 5.1875 " fill-opacity="1" fill-rule="nonzero"/><path fill="#8400d3" d="M 26.851562 5.992188 C 26.851562 5.898438 26.78125 5.820312 26.691406 5.808594 L 22.765625 5.3125 C 22.65625 5.300781 22.558594 5.382812 22.558594 5.496094 C 22.558594 5.585938 22.628906 5.664062 22.71875 5.675781 L 26.644531 6.171875 C 26.753906 6.1875 26.851562 6.101562 26.851562 5.992188 " fill-opacity="1" fill-rule="nonzero"/><path fill="#8400d3" d="M 26.851562 6.796875 C 26.851562 6.703125 26.78125 6.625 26.691406 6.613281 L 22.765625 6.117188 C 22.65625 6.101562 22.558594 6.1875 22.558594 6.296875 L 22.558594 6.300781 C 22.558594 6.390625 22.628906 6.46875 22.71875 6.480469 L 26.644531 6.976562 C 26.753906 6.992188 26.851562 6.90625 26.851562 6.796875 " fill-opacity="1" fill-rule="nonzero"/><path fill="#8400d3" d="M 22.050781 10.511719 C 22.050781 10.421875 21.984375 10.34375 21.890625 10.332031 L 16.75 9.636719 C 16.640625 9.621094 16.542969 9.707031 16.542969 9.816406 C 16.542969 9.910156 16.609375 9.984375 16.703125 10 L 21.84375 10.691406 C 21.953125 10.707031 22.050781 10.621094 22.050781 10.511719 " fill-opacity="1" fill-rule="nonzero"/><path fill="#8400d3" d="M 22.050781 11.316406 C 22.050781 11.222656 21.984375 11.148438 21.890625 11.132812 L 16.75 10.441406 C 16.640625 10.425781 16.542969 10.511719 16.542969 10.621094 C 16.542969 10.710938 16.609375 10.789062 16.703125 10.800781 L 21.84375 11.496094 C 21.953125 11.511719 22.050781 11.425781 22.050781 11.316406 " fill-opacity="1" fill-rule="nonzero"/><path fill="#8400d3" d="M 22.050781 12.121094 C 22.050781 12.027344 21.984375 11.949219 21.890625 11.9375 L 16.75 11.242188 C 16.640625 11.230469 16.542969 11.3125 16.542969 11.425781 C 16.542969 11.515625 16.609375 11.59375 16.703125 11.605469 L 21.84375 12.300781 C 21.953125 12.316406 22.050781 12.230469 22.050781 12.121094 " fill-opacity="1" fill-rule="nonzero"/><path fill="#8400d3" d="M 17.230469 7.417969 L 17.363281 7.734375 C 17.371094 7.753906 17.390625 7.769531 17.410156 7.777344 L 17.738281 7.871094 C 17.796875 7.886719 17.8125 7.964844 17.765625 8.003906 L 17.53125 8.195312 C 17.511719 8.214844 17.5 8.238281 17.503906 8.265625 L 17.546875 8.578125 C 17.554688 8.644531 17.480469 8.6875 17.425781 8.648438 L 17.160156 8.46875 C 17.140625 8.453125 17.113281 8.449219 17.089844 8.457031 L 16.804688 8.570312 C 16.746094 8.59375 16.6875 8.546875 16.699219 8.484375 L 16.765625 8.160156 C 16.773438 8.136719 16.765625 8.113281 16.75 8.09375 L 16.53125 7.832031 C 16.488281 7.785156 16.523438 7.707031 16.585938 7.707031 L 16.882812 7.703125 C 16.910156 7.703125 16.9375 7.6875 16.949219 7.664062 L 17.089844 7.410156 C 17.121094 7.351562 17.203125 7.355469 17.230469 7.417969 " fill-opacity="1" fill-rule="nonzero"/><path fill="#8400d3" d="M 18.71875 7.597656 L 18.851562 7.914062 C 18.859375 7.9375 18.878906 7.953125 18.902344 7.960938 L 19.226562 8.054688 C 19.285156 8.070312 19.300781 8.144531 19.253906 8.183594 L 19.019531 8.378906 C 19 8.394531 18.992188 8.421875 18.996094 8.449219 L 19.035156 8.757812 C 19.042969 8.824219 18.96875 8.871094 18.914062 8.832031 L 18.652344 8.648438 C 18.628906 8.636719 18.601562 8.632812 18.578125 8.640625 L 18.292969 8.753906 C 18.238281 8.777344 18.175781 8.726562 18.191406 8.667969 L 18.257812 8.339844 C 18.261719 8.320312 18.253906 8.296875 18.238281 8.277344 L 18.019531 8.015625 C 17.976562 7.964844 18.011719 7.890625 18.078125 7.890625 L 18.371094 7.886719 C 18.398438 7.886719 18.425781 7.871094 18.4375 7.847656 L 18.578125 7.589844 C 18.609375 7.535156 18.695312 7.539062 18.71875 7.597656 " fill-opacity="1" fill-rule="nonzero"/><path fill="#8400d3" d="M 20.207031 7.78125 L 20.339844 8.097656 C 20.347656 8.117188 20.367188 8.136719 20.390625 8.140625 L 20.714844 8.234375 C 20.773438 8.253906 20.789062 8.328125 20.742188 8.367188 L 20.511719 8.5625 C 20.488281 8.578125 20.480469 8.605469 20.484375 8.628906 L 20.523438 8.941406 C 20.53125 9.007812 20.457031 9.050781 20.402344 9.015625 L 20.140625 8.832031 C 20.121094 8.816406 20.09375 8.816406 20.066406 8.824219 L 19.78125 8.9375 C 19.726562 8.960938 19.667969 8.910156 19.679688 8.851562 L 19.746094 8.523438 C 19.75 8.5 19.746094 8.476562 19.730469 8.460938 L 19.507812 8.199219 C 19.464844 8.148438 19.5 8.074219 19.566406 8.074219 L 19.859375 8.070312 C 19.890625 8.070312 19.914062 8.054688 19.929688 8.03125 L 20.070312 7.773438 C 20.101562 7.71875 20.183594 7.722656 20.207031 7.78125 " fill-opacity="1" fill-rule="nonzero"/><path fill="#8400d3" d="M 21.695312 7.964844 L 21.828125 8.28125 C 21.839844 8.300781 21.855469 8.316406 21.878906 8.324219 L 22.203125 8.417969 C 22.261719 8.4375 22.277344 8.511719 22.230469 8.550781 L 22 8.746094 C 21.980469 8.761719 21.96875 8.785156 21.972656 8.8125 L 22.011719 9.125 C 22.019531 9.191406 21.949219 9.234375 21.894531 9.195312 L 21.628906 9.015625 C 21.609375 9 21.582031 8.996094 21.558594 9.007812 L 21.273438 9.121094 C 21.214844 9.140625 21.15625 9.09375 21.167969 9.035156 L 21.234375 8.707031 C 21.238281 8.683594 21.234375 8.660156 21.21875 8.644531 L 20.996094 8.382812 C 20.953125 8.332031 20.988281 8.257812 21.054688 8.257812 L 21.351562 8.253906 C 21.378906 8.253906 21.402344 8.238281 21.417969 8.214844 L 21.558594 7.957031 C 21.589844 7.902344 21.671875 7.90625 21.695312 7.964844 " fill-opacity="1" fill-rule="nonzero"/><path fill="#8400d3" d="M 23.1875 8.148438 L 23.320312 8.464844 C 23.328125 8.484375 23.34375 8.5 23.367188 8.507812 L 23.691406 8.601562 C 23.753906 8.617188 23.769531 8.695312 23.722656 8.734375 L 23.488281 8.925781 C 23.46875 8.945312 23.457031 8.96875 23.460938 8.996094 L 23.503906 9.308594 C 23.511719 9.375 23.4375 9.417969 23.382812 9.378906 L 23.117188 9.199219 C 23.097656 9.183594 23.070312 9.179688 23.046875 9.191406 L 22.761719 9.300781 C 22.703125 9.324219 22.644531 9.277344 22.65625 9.214844 L 22.722656 8.890625 C 22.730469 8.867188 22.722656 8.84375 22.707031 8.824219 L 22.484375 8.5625 C 22.445312 8.515625 22.480469 8.4375 22.542969 8.4375 L 22.839844 8.433594 C 22.867188 8.433594 22.894531 8.421875 22.90625 8.394531 L 23.046875 8.140625 C 23.078125 8.082031 23.160156 8.085938 23.1875 8.148438 " fill-opacity="1" fill-rule="nonzero"/><path fill="#ffffff" d="M 3 26.515625 L 3.082031 27.273438 L 3.601562 27.335938 L 3.601562 26.433594 L 3 26.515625 " fill-opacity="1" fill-rule="nonzero"/><path fill="#472562" d="M 3.128906 27.230469 L 3.550781 27.277344 L 3.550781 26.492188 L 3.058594 26.558594 Z M 3.601562 27.382812 C 3.597656 27.382812 3.59375 27.382812 3.59375 27.382812 L 3.074219 27.324219 C 3.050781 27.320312 3.035156 27.300781 3.03125 27.277344 L 2.949219 26.519531 C 2.949219 26.492188 2.96875 26.46875 2.996094 26.464844 L 3.59375 26.382812 C 3.605469 26.382812 3.621094 26.386719 3.632812 26.394531 C 3.644531 26.40625 3.648438 26.417969 3.648438 26.433594 L 3.648438 27.335938 C 3.648438 27.347656 3.644531 27.363281 3.632812 27.371094 C 3.625 27.378906 3.613281 27.382812 3.601562 27.382812 " fill-opacity="1" fill-rule="nonzero"/><path fill="#6f129d" d="M 3.714844 28.65625 C 3.5 28.6875 3.109375 28.710938 2.695312 28.65625 C 2.558594 28.636719 2.46875 28.507812 2.503906 28.375 C 2.59375 28.003906 2.71875 27.273438 2.988281 26.949219 L 3.089844 27.15625 L 3.148438 26.992188 C 3.179688 26.925781 3.25 26.929688 3.277344 26.925781 L 3.414062 26.925781 C 3.457031 26.917969 3.496094 26.949219 3.503906 26.988281 L 3.546875 27.160156 L 3.707031 26.941406 L 3.800781 27.855469 L 3.910156 28.398438 C 3.925781 28.582031 3.839844 28.636719 3.714844 28.65625 " fill-opacity="1" fill-rule="nonzero"/><path fill="#472562" d="M 2.980469 27.046875 C 2.792969 27.320312 2.683594 27.804688 2.601562 28.164062 C 2.585938 28.246094 2.566406 28.320312 2.550781 28.386719 C 2.539062 28.433594 2.546875 28.484375 2.578125 28.527344 C 2.605469 28.570312 2.652344 28.597656 2.703125 28.605469 C 3.160156 28.667969 3.558594 28.628906 3.707031 28.605469 C 3.8125 28.589844 3.871094 28.554688 3.859375 28.40625 L 3.75 27.863281 C 3.75 27.863281 3.75 27.859375 3.75 27.859375 L 3.671875 27.074219 L 3.585938 27.1875 C 3.574219 27.203125 3.554688 27.210938 3.535156 27.207031 C 3.515625 27.203125 3.5 27.191406 3.496094 27.171875 L 3.453125 27 C 3.449219 26.984375 3.433594 26.972656 3.417969 26.976562 C 3.417969 26.976562 3.417969 26.976562 3.414062 26.976562 L 3.28125 26.976562 C 3.277344 26.976562 3.273438 26.976562 3.269531 26.976562 C 3.234375 26.980469 3.210938 26.984375 3.195312 27.011719 L 3.136719 27.175781 C 3.128906 27.191406 3.113281 27.207031 3.089844 27.207031 C 3.070312 27.207031 3.050781 27.199219 3.042969 27.179688 Z M 3.714844 28.65625 Z M 3.203125 28.738281 C 3.050781 28.738281 2.875 28.730469 2.6875 28.707031 C 2.609375 28.695312 2.539062 28.652344 2.492188 28.585938 C 2.449219 28.519531 2.433594 28.4375 2.453125 28.363281 C 2.46875 28.296875 2.484375 28.222656 2.503906 28.144531 C 2.59375 27.742188 2.71875 27.195312 2.949219 26.917969 C 2.960938 26.902344 2.976562 26.894531 2.996094 26.898438 C 3.011719 26.898438 3.027344 26.910156 3.035156 26.925781 L 3.082031 27.027344 L 3.101562 26.976562 C 3.101562 26.972656 3.101562 26.972656 3.101562 26.96875 C 3.140625 26.886719 3.226562 26.878906 3.261719 26.875 C 3.265625 26.875 3.269531 26.875 3.269531 26.875 C 3.273438 26.875 3.273438 26.875 3.277344 26.875 L 3.410156 26.875 C 3.476562 26.867188 3.539062 26.914062 3.554688 26.980469 L 3.570312 27.042969 L 3.667969 26.910156 C 3.679688 26.894531 3.703125 26.886719 3.722656 26.894531 C 3.742188 26.898438 3.757812 26.914062 3.757812 26.9375 L 3.851562 27.847656 L 3.960938 28.390625 C 3.960938 28.390625 3.960938 28.394531 3.960938 28.394531 C 3.976562 28.578125 3.898438 28.679688 3.722656 28.707031 C 3.628906 28.71875 3.441406 28.738281 3.203125 28.738281 " fill-opacity="1" fill-rule="nonzero"/><path fill="#472562" d="M 3.164062 28.496094 C 3.035156 28.496094 2.890625 28.484375 2.742188 28.449219 C 2.714844 28.441406 2.695312 28.414062 2.703125 28.390625 C 2.710938 28.363281 2.738281 28.34375 2.765625 28.351562 C 3.261719 28.464844 3.6875 28.320312 3.695312 28.316406 C 3.71875 28.308594 3.75 28.324219 3.757812 28.347656 C 3.765625 28.375 3.753906 28.402344 3.726562 28.414062 C 3.714844 28.417969 3.484375 28.496094 3.164062 28.496094 " fill-opacity="1" fill-rule="nonzero"/><path fill="#472562" d="M 2.957031 27.929688 C 2.929688 27.929688 2.90625 27.910156 2.90625 27.882812 C 2.90625 27.855469 2.925781 27.832031 2.957031 27.828125 L 3.441406 27.8125 C 3.46875 27.8125 3.492188 27.835938 3.492188 27.863281 C 3.496094 27.890625 3.472656 27.914062 3.445312 27.914062 L 2.960938 27.929688 C 2.957031 27.929688 2.957031 27.929688 2.957031 27.929688 " fill-opacity="1" fill-rule="nonzero"/><path fill="#ffffff" d="M 5.429688 26.109375 L 5.503906 27.21875 L 6.128906 27.21875 L 6.15625 26.109375 L 5.429688 26.109375 " fill-opacity="1" fill-rule="nonzero"/><path fill="#472562" d="M 5.554688 27.167969 L 6.078125 27.167969 L 6.105469 26.160156 L 5.480469 26.160156 Z M 6.128906 27.269531 L 5.503906 27.269531 C 5.480469 27.269531 5.457031 27.25 5.453125 27.222656 L 5.378906 26.113281 C 5.375 26.101562 5.382812 26.085938 5.390625 26.074219 C 5.398438 26.066406 5.414062 26.058594 5.429688 26.058594 L 6.15625 26.058594 C 6.171875 26.058594 6.183594 26.066406 6.195312 26.074219 C 6.203125 26.085938 6.207031 26.097656 6.207031 26.113281 L 6.179688 27.21875 C 6.179688 27.246094 6.15625 27.269531 6.128906 27.269531 " fill-opacity="1" fill-rule="nonzero"/><path fill="#6f129d" d="M 5.34375 27.84375 C 5.339844 27.949219 5.414062 28.039062 5.515625 28.066406 C 5.875 28.148438 6.683594 28.332031 6.914062 28.367188 C 7.210938 28.410156 7.613281 28.386719 7.769531 28.210938 C 7.929688 28.039062 7.625 27.699219 7.140625 27.40625 C 6.777344 27.1875 6.433594 26.742188 6.289062 26.722656 C 6.140625 26.703125 5.871094 27.121094 5.871094 27.121094 L 5.429688 26.9375 C 5.429688 26.9375 5.351562 27.3125 5.34375 27.84375 " fill-opacity="1" fill-rule="nonzero"/><path fill="#472562" d="M 5.34375 27.84375 Z M 5.464844 27.007812 C 5.445312 27.132812 5.398438 27.445312 5.394531 27.84375 C 5.390625 27.925781 5.449219 27.996094 5.527344 28.015625 C 5.871094 28.09375 6.6875 28.28125 6.917969 28.316406 C 7.210938 28.359375 7.589844 28.335938 7.734375 28.179688 C 7.757812 28.152344 7.765625 28.121094 7.761719 28.082031 C 7.738281 27.921875 7.484375 27.671875 7.113281 27.449219 C 6.925781 27.335938 6.738281 27.160156 6.589844 27.019531 C 6.464844 26.902344 6.335938 26.78125 6.28125 26.773438 C 6.210938 26.761719 6.035156 26.957031 5.914062 27.148438 C 5.902344 27.167969 5.875 27.175781 5.851562 27.167969 Z M 7.179688 28.433594 C 7.085938 28.433594 6.992188 28.429688 6.90625 28.414062 C 6.671875 28.378906 5.847656 28.191406 5.503906 28.113281 C 5.378906 28.085938 5.289062 27.972656 5.292969 27.84375 C 5.300781 27.3125 5.378906 26.929688 5.378906 26.925781 C 5.382812 26.910156 5.390625 26.898438 5.402344 26.890625 C 5.417969 26.882812 5.433594 26.882812 5.449219 26.890625 L 5.851562 27.058594 C 5.941406 26.929688 6.144531 26.652344 6.292969 26.671875 C 6.378906 26.683594 6.484375 26.78125 6.660156 26.949219 C 6.8125 27.09375 6.988281 27.257812 7.167969 27.363281 C 7.574219 27.609375 7.832031 27.871094 7.859375 28.066406 C 7.871094 28.136719 7.851562 28.195312 7.808594 28.246094 C 7.683594 28.382812 7.433594 28.433594 7.179688 28.433594 " fill-opacity="1" fill-rule="nonzero"/><path fill="#472562" d="M 7.054688 28.164062 C 6.507812 28.164062 5.8125 27.976562 5.5625 27.882812 C 5.535156 27.871094 5.523438 27.84375 5.53125 27.816406 C 5.542969 27.792969 5.570312 27.777344 5.597656 27.789062 C 5.886719 27.898438 7.050781 28.210938 7.519531 27.984375 C 7.546875 27.972656 7.574219 27.984375 7.589844 28.007812 C 7.601562 28.035156 7.589844 28.066406 7.5625 28.078125 C 7.433594 28.140625 7.253906 28.164062 7.054688 28.164062 " fill-opacity="1" fill-rule="nonzero"/><path fill="#472562" d="M 6.371094 27.550781 C 6.359375 27.550781 6.34375 27.546875 6.332031 27.535156 C 6.316406 27.515625 6.316406 27.484375 6.335938 27.464844 L 6.65625 27.179688 C 6.675781 27.164062 6.707031 27.164062 6.726562 27.183594 C 6.746094 27.207031 6.742188 27.238281 6.722656 27.253906 L 6.40625 27.539062 C 6.394531 27.546875 6.382812 27.550781 6.371094 27.550781 " fill-opacity="1" fill-rule="nonzero"/><path fill="#472562" d="M 2.824219 18.886719 C 2.824219 18.886719 2.632812 22.351562 2.53125 23.546875 C 2.429688 24.742188 2.765625 26.664062 2.765625 26.664062 L 3.730469 26.613281 C 3.730469 26.613281 3.792969 24.277344 3.867188 23.628906 C 3.867188 23.628906 4.273438 22.75 4.394531 21.964844 C 4.511719 21.179688 4.925781 19.9375 4.925781 19.9375 C 4.925781 19.9375 5.257812 26.125 5.289062 26.613281 C 5.289062 26.613281 6.042969 26.644531 6.316406 26.476562 C 6.316406 26.476562 6.792969 24.21875 6.726562 22.992188 C 6.65625 21.765625 6.730469 18.714844 6.730469 18.714844 L 2.824219 18.886719 " fill-opacity="1" fill-rule="nonzero"/><path fill="#ffffff" d="M 7.492188 13.378906 C 7.539062 13.378906 7.914062 13.78125 8.175781 14.074219 C 8.332031 14.25 8.589844 14.296875 8.800781 14.191406 C 9.453125 13.863281 9.929688 13.53125 10.554688 13.035156 C 10.554688 13.035156 10.925781 12.414062 11.210938 12.1875 C 11.320312 12.097656 11.394531 12.039062 11.445312 12.003906 C 11.496094 11.960938 11.578125 12 11.574219 12.066406 C 11.574219 12.101562 11.5625 12.144531 11.535156 12.1875 C 11.449219 12.324219 11.304688 12.515625 11.304688 12.515625 C 11.304688 12.515625 11.617188 12.695312 11.351562 13.101562 C 11.242188 13.269531 11.128906 13.300781 11.007812 13.332031 C 10.886719 13.367188 10.753906 13.582031 10.753906 13.582031 C 10.753906 13.582031 9.675781 15.261719 8.699219 15.511719 C 7.996094 15.6875 7.5 15.132812 6.667969 14.714844 L 7.492188 13.378906 " fill-opacity="1" fill-rule="nonzero"/><path fill="#472562" d="M 6.738281 14.695312 C 6.957031 14.808594 7.152344 14.929688 7.335938 15.042969 C 7.820312 15.347656 8.203125 15.585938 8.6875 15.460938 C 9.632812 15.222656 10.699219 13.570312 10.710938 13.554688 C 10.726562 13.53125 10.859375 13.320312 10.996094 13.285156 C 11.113281 13.25 11.207031 13.226562 11.308594 13.074219 C 11.390625 12.945312 11.421875 12.832031 11.398438 12.730469 C 11.371094 12.617188 11.28125 12.558594 11.277344 12.558594 C 11.265625 12.550781 11.257812 12.539062 11.253906 12.523438 C 11.253906 12.511719 11.253906 12.496094 11.265625 12.484375 C 11.265625 12.484375 11.40625 12.296875 11.492188 12.160156 C 11.511719 12.128906 11.523438 12.097656 11.523438 12.066406 C 11.523438 12.050781 11.511719 12.042969 11.507812 12.039062 C 11.503906 12.035156 11.488281 12.03125 11.476562 12.042969 C 11.425781 12.078125 11.351562 12.136719 11.242188 12.226562 C 10.96875 12.441406 10.601562 13.054688 10.597656 13.0625 C 10.59375 13.066406 10.589844 13.070312 10.585938 13.074219 C 10.003906 13.539062 9.507812 13.894531 8.824219 14.234375 C 8.59375 14.351562 8.3125 14.296875 8.140625 14.109375 C 7.722656 13.648438 7.566406 13.496094 7.511719 13.449219 Z M 8.429688 15.59375 C 8.03125 15.59375 7.679688 15.375 7.285156 15.128906 C 7.085938 15.003906 6.878906 14.878906 6.644531 14.757812 C 6.632812 14.753906 6.621094 14.742188 6.617188 14.726562 C 6.613281 14.714844 6.617188 14.699219 6.625 14.6875 L 7.449219 13.355469 C 7.460938 13.339844 7.472656 13.332031 7.488281 13.332031 C 7.527344 13.328125 7.566406 13.324219 8.214844 14.039062 C 8.355469 14.195312 8.585938 14.238281 8.777344 14.144531 C 9.453125 13.808594 9.925781 13.46875 10.515625 13 C 10.5625 12.925781 10.90625 12.363281 11.179688 12.148438 C 11.289062 12.058594 11.363281 12 11.414062 11.964844 C 11.453125 11.929688 11.507812 11.925781 11.554688 11.949219 C 11.597656 11.972656 11.628906 12.019531 11.625 12.066406 C 11.625 12.117188 11.609375 12.167969 11.578125 12.214844 C 11.515625 12.316406 11.421875 12.441406 11.375 12.503906 C 11.417969 12.542969 11.472656 12.609375 11.496094 12.707031 C 11.527344 12.835938 11.492188 12.976562 11.394531 13.128906 C 11.273438 13.3125 11.144531 13.347656 11.023438 13.382812 C 10.949219 13.402344 10.84375 13.53125 10.796875 13.605469 C 10.75 13.675781 9.695312 15.308594 8.710938 15.558594 C 8.613281 15.582031 8.523438 15.59375 8.429688 15.59375 " fill-opacity="1" fill-rule="nonzero"/><path fill="#6f129d" d="M 1.703125 14.945312 C 1.703125 14.945312 1.230469 12.746094 3.167969 12.105469 C 4.351562 11.710938 5.816406 11.800781 6.421875 12.136719 C 7.289062 12.613281 7.84375 13.523438 7.84375 13.523438 L 6.832031 14.945312 C 6.832031 14.945312 7.054688 18.597656 6.878906 19.5625 C 6.878906 19.5625 5.789062 19.6875 5.324219 19.507812 C 4.863281 19.324219 3.34375 19.074219 2.613281 19.402344 L 2.746094 14.78125 L 1.703125 14.945312 " fill-opacity="1" fill-rule="nonzero"/><path fill="#472562" d="M 3.601562 19.191406 C 4.296875 19.191406 5.042969 19.34375 5.34375 19.460938 C 5.742188 19.613281 6.640625 19.535156 6.835938 19.515625 C 6.996094 18.515625 6.78125 14.984375 6.78125 14.949219 C 6.78125 14.9375 6.785156 14.925781 6.789062 14.917969 L 7.785156 13.519531 C 7.683594 13.367188 7.15625 12.597656 6.398438 12.179688 C 5.8125 11.855469 4.347656 11.765625 3.183594 12.152344 C 2.398438 12.414062 1.921875 12.957031 1.757812 13.777344 C 1.660156 14.285156 1.71875 14.746094 1.742188 14.890625 L 2.738281 14.730469 C 2.753906 14.730469 2.769531 14.734375 2.78125 14.742188 C 2.792969 14.753906 2.796875 14.769531 2.796875 14.78125 L 2.667969 19.328125 C 2.925781 19.230469 3.257812 19.191406 3.601562 19.191406 Z M 6.109375 19.652344 C 5.816406 19.652344 5.507812 19.632812 5.308594 19.554688 C 4.832031 19.367188 3.328125 19.136719 2.636719 19.449219 C 2.621094 19.457031 2.601562 19.457031 2.585938 19.445312 C 2.574219 19.4375 2.5625 19.417969 2.5625 19.402344 L 2.695312 14.839844 L 1.710938 14.996094 C 1.683594 15 1.660156 14.984375 1.652344 14.957031 C 1.648438 14.933594 1.535156 14.390625 1.660156 13.757812 C 1.777344 13.167969 2.128906 12.398438 3.152344 12.058594 C 4.355469 11.65625 5.828125 11.75 6.449219 12.089844 C 7.3125 12.570312 7.882812 13.488281 7.890625 13.496094 C 7.898438 13.515625 7.898438 13.535156 7.886719 13.550781 L 6.882812 14.960938 C 6.902344 15.269531 7.101562 18.636719 6.929688 19.570312 C 6.925781 19.589844 6.90625 19.609375 6.882812 19.609375 C 6.859375 19.613281 6.5 19.652344 6.109375 19.652344 " fill-opacity="1" fill-rule="nonzero"/><path fill="#472562" d="M 3.183594 18.882812 C 3.160156 18.882812 3.140625 18.863281 3.136719 18.839844 C 3.128906 18.8125 3.148438 18.789062 3.175781 18.78125 C 4.898438 18.480469 5.398438 17.300781 5.40625 17.289062 C 5.414062 17.265625 5.445312 17.25 5.472656 17.261719 C 5.496094 17.273438 5.507812 17.300781 5.5 17.328125 C 5.492188 17.339844 4.972656 18.570312 3.195312 18.882812 C 3.191406 18.882812 3.1875 18.882812 3.183594 18.882812 " fill-opacity="1" fill-rule="nonzero"/><path fill="#8400d3" d="M 7.347656 17.085938 L 5.128906 17.085938 L 5.921875 14.324219 L 8.140625 14.324219 L 7.347656 17.085938 " fill-opacity="1" fill-rule="nonzero"/><path fill="#472562" d="M 5.195312 17.035156 L 7.308594 17.035156 L 8.074219 14.375 L 5.957031 14.375 Z M 7.347656 17.136719 L 5.128906 17.136719 C 5.109375 17.136719 5.097656 17.128906 5.085938 17.117188 C 5.078125 17.105469 5.074219 17.089844 5.078125 17.074219 L 5.871094 14.3125 C 5.878906 14.289062 5.898438 14.277344 5.921875 14.277344 L 8.140625 14.277344 C 8.15625 14.277344 8.171875 14.28125 8.179688 14.296875 C 8.191406 14.308594 8.195312 14.324219 8.1875 14.339844 L 7.394531 17.101562 C 7.390625 17.121094 7.371094 17.136719 7.347656 17.136719 " fill-opacity="1" fill-rule="nonzero"/><path fill="#ffffff" d="M 7.316406 14.496094 L 6.503906 14.496094 L 6.625 14.074219 L 7.425781 14.074219 C 7.441406 14.074219 7.457031 14.089844 7.449219 14.109375 L 7.34375 14.476562 C 7.339844 14.488281 7.332031 14.496094 7.316406 14.496094 " fill-opacity="1" fill-rule="nonzero"/><path fill="#472562" d="M 6.570312 14.445312 L 7.300781 14.445312 L 7.394531 14.125 L 6.664062 14.125 Z M 7.316406 14.546875 L 6.503906 14.546875 C 6.488281 14.546875 6.472656 14.539062 6.464844 14.527344 C 6.453125 14.515625 6.453125 14.5 6.457031 14.484375 L 6.578125 14.058594 C 6.582031 14.039062 6.605469 14.023438 6.625 14.023438 L 7.425781 14.023438 C 7.449219 14.023438 7.472656 14.035156 7.488281 14.054688 C 7.5 14.074219 7.507812 14.097656 7.5 14.121094 L 7.394531 14.492188 C 7.382812 14.523438 7.351562 14.546875 7.316406 14.546875 " fill-opacity="1" fill-rule="nonzero"/><path fill="#ffffff" d="M 1.898438 14.921875 L 2.988281 14.726562 L 3.101562 15.234375 C 3.140625 15.414062 3.285156 15.550781 3.46875 15.578125 C 3.820312 15.632812 4.457031 15.621094 5 15.441406 C 5.136719 15.394531 5.472656 15.269531 5.464844 14.847656 C 5.457031 14.5625 5.769531 14.828125 5.710938 15.050781 C 5.644531 15.316406 5.675781 15.316406 6.046875 15.347656 C 6.214844 15.363281 6.5625 15.25 6.628906 15.347656 C 6.691406 15.445312 6.511719 15.714844 6.242188 15.8125 C 5.867188 15.949219 5.53125 15.800781 5.414062 15.847656 C 5.03125 16.011719 4.75 16.171875 4.441406 16.285156 C 3.851562 16.503906 3.339844 16.617188 3.019531 16.699219 C 2.699219 16.78125 2.375 16.597656 2.285156 16.28125 L 1.898438 14.921875 " fill-opacity="1" fill-rule="nonzero"/><path fill="#472562" d="M 1.960938 14.960938 L 2.335938 16.269531 C 2.417969 16.554688 2.71875 16.726562 3.007812 16.652344 C 3.0625 16.636719 3.121094 16.621094 3.1875 16.605469 C 3.503906 16.527344 3.9375 16.417969 4.421875 16.238281 C 4.597656 16.175781 4.765625 16.09375 4.945312 16.007812 C 5.085938 15.941406 5.230469 15.875 5.394531 15.804688 C 5.449219 15.777344 5.527344 15.789062 5.632812 15.800781 C 5.785156 15.820312 6 15.847656 6.222656 15.765625 C 6.402344 15.699219 6.546875 15.546875 6.582031 15.4375 C 6.59375 15.40625 6.589844 15.382812 6.585938 15.375 C 6.5625 15.339844 6.382812 15.367188 6.289062 15.378906 C 6.195312 15.390625 6.109375 15.402344 6.042969 15.398438 L 6.035156 15.398438 C 5.8125 15.378906 5.710938 15.371094 5.660156 15.300781 C 5.617188 15.242188 5.632812 15.15625 5.664062 15.039062 C 5.683594 14.957031 5.636719 14.859375 5.582031 14.804688 C 5.554688 14.777344 5.53125 14.773438 5.527344 14.773438 C 5.523438 14.777344 5.511719 14.792969 5.515625 14.84375 C 5.523438 15.160156 5.351562 15.375 5.015625 15.488281 C 4.472656 15.667969 3.828125 15.6875 3.460938 15.628906 C 3.257812 15.59375 3.097656 15.445312 3.050781 15.246094 L 2.949219 14.785156 Z M 2.871094 16.769531 C 2.582031 16.769531 2.320312 16.582031 2.238281 16.296875 L 1.851562 14.933594 C 1.847656 14.921875 1.847656 14.90625 1.855469 14.894531 C 1.863281 14.882812 1.875 14.875 1.890625 14.871094 L 2.976562 14.679688 C 3.003906 14.675781 3.03125 14.691406 3.035156 14.71875 L 3.152344 15.222656 C 3.1875 15.382812 3.316406 15.503906 3.476562 15.527344 C 3.835938 15.585938 4.457031 15.566406 4.980469 15.394531 C 5.171875 15.332031 5.421875 15.207031 5.414062 14.847656 C 5.410156 14.761719 5.433594 14.707031 5.484375 14.683594 C 5.527344 14.664062 5.582031 14.675781 5.632812 14.714844 C 5.722656 14.785156 5.792969 14.929688 5.761719 15.0625 C 5.742188 15.136719 5.722656 15.21875 5.742188 15.242188 C 5.765625 15.273438 5.875 15.285156 6.046875 15.296875 L 6.050781 15.296875 C 6.105469 15.300781 6.191406 15.289062 6.277344 15.277344 C 6.449219 15.253906 6.609375 15.234375 6.667969 15.320312 C 6.6875 15.347656 6.703125 15.394531 6.679688 15.46875 C 6.636719 15.597656 6.476562 15.78125 6.257812 15.859375 C 6.011719 15.949219 5.785156 15.921875 5.617188 15.902344 C 5.539062 15.890625 5.464844 15.882812 5.433594 15.894531 C 5.269531 15.964844 5.128906 16.03125 4.992188 16.097656 C 4.808594 16.183594 4.636719 16.265625 4.457031 16.332031 C 3.96875 16.515625 3.53125 16.625 3.210938 16.703125 C 3.144531 16.71875 3.085938 16.734375 3.03125 16.75 C 2.976562 16.761719 2.921875 16.769531 2.871094 16.769531 " fill-opacity="1" fill-rule="nonzero"/><path fill="#ffffff" d="M 5.140625 11.804688 L 5.101562 11.441406 C 5.105469 11.398438 5.136719 11.359375 5.179688 11.347656 L 5.5 11.257812 C 5.542969 11.25 5.570312 11.210938 5.570312 11.167969 L 5.570312 10.78125 L 5.699219 10.679688 C 5.710938 10.671875 5.710938 10.65625 5.703125 10.648438 L 5.523438 10.402344 C 5.464844 10.308594 5.414062 10.09375 5.359375 10.101562 C 5.359375 10.101562 4.183594 9.859375 4.09375 10.410156 C 4.078125 10.488281 4.097656 10.570312 4.140625 10.640625 L 4.234375 10.78125 C 4.324219 10.925781 4.34375 11.570312 4.304688 11.71875 C 4.28125 11.800781 4.226562 11.875 4.15625 11.921875 C 4.0625 11.984375 3.953125 12.0625 3.96875 12.066406 C 3.96875 12.066406 4.085938 12.164062 4.277344 12.253906 C 4.613281 12.417969 5.070312 12.277344 5.390625 12.082031 C 5.390625 12.082031 5.132812 11.898438 5.140625 11.804688 " fill-opacity="1" fill-rule="nonzero"/><path fill="#472562" d="M 4.046875 12.0625 C 4.09375 12.09375 4.183594 12.152344 4.300781 12.210938 C 4.597656 12.351562 5 12.242188 5.296875 12.078125 C 5.207031 12.003906 5.085938 11.894531 5.089844 11.808594 L 5.050781 11.445312 C 5.050781 11.445312 5.050781 11.441406 5.050781 11.441406 C 5.054688 11.375 5.101562 11.316406 5.164062 11.296875 L 5.488281 11.210938 C 5.503906 11.207031 5.519531 11.1875 5.519531 11.167969 L 5.519531 10.78125 C 5.519531 10.765625 5.527344 10.75 5.539062 10.742188 L 5.648438 10.65625 L 5.484375 10.429688 C 5.480469 10.429688 5.480469 10.429688 5.480469 10.425781 C 5.457031 10.386719 5.433594 10.332031 5.414062 10.28125 C 5.394531 10.238281 5.371094 10.171875 5.355469 10.152344 C 5.351562 10.152344 5.351562 10.152344 5.351562 10.152344 C 5.34375 10.152344 4.59375 10 4.273438 10.21875 C 4.199219 10.269531 4.15625 10.335938 4.144531 10.417969 C 4.132812 10.484375 4.148438 10.554688 4.183594 10.613281 L 4.277344 10.757812 C 4.375 10.917969 4.394531 11.578125 4.351562 11.730469 C 4.324219 11.828125 4.265625 11.910156 4.183594 11.964844 C 4.113281 12.011719 4.070312 12.042969 4.046875 12.0625 Z M 4.613281 12.375 C 4.488281 12.375 4.367188 12.351562 4.253906 12.300781 C 4.0625 12.207031 3.941406 12.109375 3.9375 12.105469 C 3.925781 12.097656 3.917969 12.085938 3.917969 12.070312 C 3.914062 12.039062 3.914062 12.023438 4.128906 11.878906 C 4.191406 11.839844 4.234375 11.777344 4.253906 11.707031 C 4.292969 11.558594 4.269531 10.9375 4.191406 10.808594 L 4.097656 10.667969 C 4.046875 10.585938 4.027344 10.492188 4.042969 10.402344 C 4.0625 10.292969 4.117188 10.203125 4.214844 10.136719 C 4.554688 9.902344 5.273438 10.035156 5.363281 10.050781 C 5.429688 10.050781 5.464844 10.136719 5.507812 10.242188 C 5.527344 10.292969 5.546875 10.339844 5.566406 10.371094 L 5.746094 10.617188 C 5.769531 10.652344 5.761719 10.695312 5.730469 10.71875 L 5.621094 10.804688 L 5.621094 11.167969 C 5.621094 11.234375 5.578125 11.289062 5.515625 11.308594 L 5.191406 11.394531 C 5.171875 11.402344 5.15625 11.417969 5.152344 11.441406 L 5.191406 11.800781 C 5.191406 11.804688 5.191406 11.808594 5.191406 11.808594 C 5.1875 11.84375 5.300781 11.957031 5.417969 12.042969 C 5.433594 12.050781 5.441406 12.066406 5.441406 12.085938 C 5.4375 12.101562 5.429688 12.117188 5.414062 12.125 C 5.191406 12.261719 4.890625 12.375 4.613281 12.375 " fill-opacity="1" fill-rule="nonzero"/><path fill="#472562" d="M 5.449219 9.261719 C 5.199219 9.234375 5.503906 9.511719 4.578125 9.1875 C 4.210938 9.058594 4.375 9.503906 4.28125 9.472656 C 3.925781 9.347656 3.941406 9.351562 3.761719 9.386719 C 3.644531 9.414062 3.558594 9.621094 3.570312 9.78125 C 3.589844 9.992188 3.804688 10.339844 3.996094 10.703125 C 4.097656 10.890625 4.292969 10.921875 4.546875 10.664062 C 4.570312 10.636719 4.453125 10.460938 4.527344 10.390625 C 4.710938 10.210938 4.773438 10.503906 4.917969 10.421875 C 5.058594 10.347656 5.117188 10.292969 5.269531 10.175781 C 5.453125 10.027344 5.726562 10.289062 5.851562 9.945312 C 5.914062 9.765625 5.796875 9.300781 5.449219 9.261719 " fill-opacity="1" fill-rule="nonzero"/><path fill="#ffffff" d="M 18.085938 1.667969 C 17.128906 2.222656 16.648438 3.378906 17.003906 4.472656 C 17.164062 4.96875 17.46875 5.375 17.863281 5.664062 C 17.875 5.671875 17.882812 5.679688 17.894531 5.6875 L 18.101562 5.820312 C 18.671875 6.144531 19.371094 6.238281 20.046875 6.027344 C 21.320312 5.621094 22.042969 4.128906 21.617188 3.007812 C 21.28125 2.132812 20.90625 1.808594 20.210938 1.507812 C 19.152344 1.050781 18.085938 1.667969 18.085938 1.667969 " fill-opacity="1" fill-rule="nonzero"/><path fill="#6f129d" d="M 19.253906 5.101562 C 18.636719 5.097656 18.046875 5.175781 17.515625 5.320312 C 17.621094 5.4375 17.738281 5.539062 17.863281 5.632812 C 17.875 5.640625 17.882812 5.648438 17.894531 5.652344 L 18.101562 5.789062 C 18.671875 6.113281 19.339844 6.207031 20.015625 5.992188 C 20.40625 5.871094 20.742188 5.644531 21.011719 5.355469 C 20.46875 5.195312 19.894531 5.101562 19.253906 5.101562 " fill-opacity="1" fill-rule="nonzero"/><path fill="#472562" d="M 17.613281 5.347656 C 17.699219 5.4375 17.792969 5.519531 17.894531 5.589844 C 17.902344 5.597656 17.914062 5.605469 17.921875 5.613281 L 18.128906 5.746094 C 18.714844 6.078125 19.359375 6.148438 20 5.945312 C 20.339844 5.839844 20.65625 5.644531 20.917969 5.382812 C 20.378906 5.230469 19.832031 5.152344 19.253906 5.148438 C 18.683594 5.148438 18.132812 5.214844 17.613281 5.347656 Z M 19.28125 6.160156 C 18.867188 6.160156 18.460938 6.050781 18.074219 5.832031 L 17.867188 5.695312 C 17.855469 5.6875 17.84375 5.679688 17.832031 5.671875 C 17.703125 5.578125 17.585938 5.472656 17.480469 5.355469 C 17.46875 5.34375 17.464844 5.324219 17.46875 5.308594 C 17.472656 5.289062 17.484375 5.277344 17.503906 5.273438 C 18.058594 5.121094 18.644531 5.046875 19.253906 5.050781 C 19.871094 5.054688 20.449219 5.136719 21.027344 5.308594 C 21.042969 5.3125 21.058594 5.328125 21.0625 5.34375 C 21.066406 5.359375 21.0625 5.378906 21.050781 5.390625 C 20.761719 5.695312 20.410156 5.921875 20.03125 6.042969 C 19.78125 6.121094 19.53125 6.160156 19.28125 6.160156 " fill-opacity="1" fill-rule="nonzero"/><path fill="#472562" d="M 20.851562 3.554688 C 20.613281 2.707031 20.121094 1.589844 19.199219 1.726562 C 18.316406 1.859375 17.902344 2.820312 17.710938 3.5625 C 17.59375 4.015625 17.941406 4.457031 18.414062 4.460938 L 20.144531 4.46875 C 20.625 4.472656 20.980469 4.015625 20.851562 3.554688 " fill-opacity="1" fill-rule="nonzero"/><path fill="#ffffff" d="M 20.089844 2.566406 C 20.089844 2.566406 20.085938 2.5625 20.085938 2.5625 L 18.515625 2.550781 C 18.515625 2.550781 18.515625 2.550781 18.515625 2.554688 C 18.496094 2.632812 18.484375 2.714844 18.484375 2.796875 L 18.480469 3.253906 C 18.480469 3.558594 18.625 3.828125 18.84375 3.984375 L 18.835938 5.175781 C 18.835938 5.410156 19.027344 5.601562 19.265625 5.605469 C 19.503906 5.605469 19.699219 5.414062 19.703125 5.179688 L 19.707031 4.007812 C 19.941406 3.855469 20.101562 3.578125 20.101562 3.261719 L 20.105469 2.746094 C 20.105469 2.6875 20.101562 2.625 20.089844 2.566406 " fill-opacity="1" fill-rule="nonzero"/><path fill="#472562" d="M 19.269531 5.65625 C 19.269531 5.65625 19.265625 5.65625 19.265625 5.65625 C 19 5.652344 18.785156 5.4375 18.785156 5.175781 L 18.792969 4.019531 C 18.792969 3.992188 18.816406 3.96875 18.84375 3.96875 C 18.871094 3.96875 18.894531 3.992188 18.894531 4.019531 L 18.886719 5.175781 C 18.886719 5.277344 18.925781 5.371094 18.996094 5.441406 C 19.070312 5.515625 19.164062 5.554688 19.265625 5.554688 C 19.269531 5.554688 19.269531 5.554688 19.269531 5.554688 C 19.480469 5.554688 19.648438 5.386719 19.652344 5.179688 L 19.65625 4.019531 C 19.65625 3.992188 19.679688 3.96875 19.707031 3.96875 C 19.734375 3.96875 19.757812 3.992188 19.757812 4.019531 L 19.753906 5.179688 C 19.75 5.308594 19.699219 5.425781 19.609375 5.515625 C 19.519531 5.605469 19.398438 5.65625 19.269531 5.65625 " fill-opacity="1" fill-rule="nonzero"/><path fill="#472562" d="M 19.292969 3.621094 C 19.191406 3.621094 19.09375 3.578125 19.027344 3.507812 C 19.007812 3.484375 19.007812 3.453125 19.03125 3.433594 C 19.050781 3.417969 19.082031 3.417969 19.101562 3.4375 C 19.152344 3.492188 19.21875 3.519531 19.292969 3.519531 C 19.367188 3.519531 19.433594 3.492188 19.484375 3.4375 C 19.503906 3.417969 19.535156 3.417969 19.558594 3.4375 C 19.578125 3.457031 19.578125 3.488281 19.558594 3.507812 C 19.488281 3.582031 19.394531 3.621094 19.292969 3.621094 " fill-opacity="1" fill-rule="nonzero"/><path fill="#472562" d="M 19.292969 4.179688 C 19.289062 4.179688 19.289062 4.179688 19.285156 4.179688 C 19.257812 4.179688 19.238281 4.15625 19.238281 4.128906 C 19.238281 4.101562 19.257812 4.078125 19.289062 4.078125 C 19.289062 4.078125 19.289062 4.078125 19.292969 4.078125 C 19.492188 4.078125 19.679688 3.996094 19.824219 3.84375 C 19.96875 3.6875 20.050781 3.480469 20.050781 3.261719 L 20.054688 2.746094 C 20.054688 2.535156 19.980469 2.335938 19.839844 2.183594 C 19.703125 2.035156 19.519531 1.953125 19.324219 1.949219 C 19.324219 1.949219 19.324219 1.949219 19.320312 1.949219 C 19.113281 1.949219 18.917969 2.039062 18.769531 2.195312 C 18.617188 2.355469 18.535156 2.570312 18.535156 2.796875 L 18.53125 3.253906 C 18.53125 3.574219 18.703125 3.871094 18.976562 4.003906 C 19 4.019531 19.011719 4.046875 18.996094 4.074219 C 18.984375 4.097656 18.953125 4.109375 18.929688 4.09375 C 18.625 3.945312 18.429688 3.613281 18.429688 3.253906 L 18.433594 2.796875 C 18.433594 2.542969 18.527344 2.304688 18.695312 2.128906 C 18.863281 1.949219 19.085938 1.851562 19.320312 1.851562 C 19.324219 1.851562 19.324219 1.851562 19.328125 1.851562 C 19.550781 1.851562 19.757812 1.945312 19.917969 2.117188 C 20.074219 2.285156 20.15625 2.511719 20.15625 2.75 L 20.152344 3.261719 C 20.152344 3.507812 20.0625 3.738281 19.898438 3.910156 C 19.738281 4.085938 19.519531 4.179688 19.292969 4.179688 " fill-opacity="1" fill-rule="nonzero"/><path fill="#8400d3" d="M 20.550781 7.832031 C 20.4375 7.867188 20.320312 7.800781 20.285156 7.6875 L 19.820312 6.066406 L 20.234375 5.945312 L 20.699219 7.566406 C 20.730469 7.679688 20.667969 7.800781 20.550781 7.832031 " fill-opacity="1" fill-rule="nonzero"/><path fill="#472562" d="M 19.882812 6.101562 L 20.335938 7.671875 C 20.347656 7.714844 20.375 7.75 20.414062 7.773438 C 20.453125 7.792969 20.496094 7.796875 20.539062 7.785156 C 20.625 7.757812 20.675781 7.667969 20.652344 7.582031 L 20.199219 6.007812 Z M 20.492188 7.890625 C 20.449219 7.890625 20.402344 7.882812 20.363281 7.859375 C 20.300781 7.824219 20.257812 7.769531 20.238281 7.703125 L 19.769531 6.078125 C 19.761719 6.054688 19.777344 6.027344 19.804688 6.019531 L 20.21875 5.898438 C 20.230469 5.894531 20.246094 5.894531 20.257812 5.902344 C 20.269531 5.90625 20.277344 5.917969 20.28125 5.929688 L 20.75 7.550781 C 20.789062 7.691406 20.707031 7.839844 20.566406 7.882812 C 20.542969 7.886719 20.515625 7.890625 20.492188 7.890625 " fill-opacity="1" fill-rule="nonzero"/><path fill="#8400d3" d="M 18.476562 5.953125 C 17.253906 5.511719 16.628906 4.164062 17.078125 2.941406 C 17.53125 1.71875 18.882812 1.085938 20.105469 1.527344 C 21.328125 1.96875 21.953125 3.320312 21.503906 4.539062 C 21.054688 5.761719 19.699219 6.394531 18.476562 5.953125 Z M 20.253906 1.128906 C 18.8125 0.609375 17.214844 1.355469 16.683594 2.796875 C 16.152344 4.238281 16.890625 5.832031 18.332031 6.351562 C 19.773438 6.871094 21.371094 6.125 21.902344 4.683594 C 22.433594 3.242188 21.695312 1.652344 20.253906 1.128906 " fill-opacity="1" fill-rule="nonzero"/><path fill="#472562" d="M 19.304688 1.4375 C 18.96875 1.4375 18.636719 1.511719 18.324219 1.65625 C 17.765625 1.917969 17.339844 2.378906 17.128906 2.957031 C 16.914062 3.535156 16.9375 4.160156 17.199219 4.71875 C 17.457031 5.277344 17.917969 5.699219 18.496094 5.90625 C 19.074219 6.117188 19.699219 6.085938 20.257812 5.824219 C 20.816406 5.5625 21.242188 5.101562 21.457031 4.523438 C 21.667969 3.945312 21.644531 3.320312 21.386719 2.761719 C 21.128906 2.207031 20.667969 1.785156 20.089844 1.574219 C 19.832031 1.484375 19.570312 1.4375 19.304688 1.4375 Z M 19.277344 6.144531 C 19.003906 6.144531 18.726562 6.097656 18.460938 6 C 17.855469 5.78125 17.375 5.34375 17.105469 4.761719 C 16.835938 4.179688 16.808594 3.527344 17.03125 2.921875 C 17.253906 2.320312 17.699219 1.835938 18.28125 1.566406 C 18.867188 1.292969 19.519531 1.261719 20.125 1.480469 C 20.726562 1.699219 21.207031 2.140625 21.476562 2.71875 C 21.746094 3.300781 21.773438 3.953125 21.550781 4.558594 C 21.328125 5.160156 20.886719 5.644531 20.300781 5.917969 C 19.976562 6.070312 19.628906 6.144531 19.277344 6.144531 Z M 19.308594 1.015625 C 18.910156 1.015625 18.515625 1.101562 18.148438 1.273438 C 17.484375 1.582031 16.980469 2.128906 16.730469 2.816406 C 16.210938 4.226562 16.933594 5.792969 18.347656 6.304688 C 19.03125 6.550781 19.773438 6.515625 20.4375 6.207031 C 21.097656 5.898438 21.601562 5.351562 21.851562 4.667969 C 22.105469 3.984375 22.078125 3.242188 21.769531 2.582031 C 21.464844 1.925781 20.917969 1.425781 20.234375 1.175781 C 19.933594 1.066406 19.621094 1.015625 19.308594 1.015625 Z M 19.277344 6.566406 C 18.953125 6.566406 18.625 6.511719 18.3125 6.398438 C 16.847656 5.867188 16.09375 4.246094 16.632812 2.78125 C 16.894531 2.070312 17.417969 1.503906 18.105469 1.183594 C 18.792969 0.863281 19.558594 0.828125 20.269531 1.082031 C 20.980469 1.339844 21.546875 1.859375 21.863281 2.542969 C 22.179688 3.222656 22.210938 3.992188 21.949219 4.703125 C 21.6875 5.410156 21.164062 5.980469 20.480469 6.300781 C 20.09375 6.476562 19.6875 6.566406 19.277344 6.566406 " fill-opacity="1" fill-rule="nonzero"/><path fill="#472562" d="M 26.664062 22.820312 C 26.664062 22.820312 27.113281 23.339844 27.105469 23.703125 L 27.125 23.839844 L 27.941406 23.007812 L 27.816406 22.964844 C 27.617188 22.847656 27.410156 22.78125 27.285156 22.585938 L 26.664062 22.820312 " fill-opacity="1" fill-rule="nonzero"/><path fill="#ffffff" d="M 26.945312 23.53125 L 26.96875 23.699219 C 27.015625 24.035156 26.980469 24.375 26.867188 24.691406 L 26.777344 24.9375 C 26.769531 24.957031 26.773438 24.984375 26.789062 25.003906 L 26.796875 25.015625 C 26.878906 25.128906 27.21875 25.207031 27.621094 24.898438 C 27.871094 24.707031 28.371094 24.191406 28.679688 23.320312 C 28.699219 23.265625 28.679688 23.203125 28.632812 23.167969 C 28.460938 23.042969 28.035156 22.753906 27.71875 22.738281 C 27.683594 22.738281 27.652344 22.765625 27.65625 22.800781 L 27.671875 23.136719 C 27.679688 23.289062 27.5625 23.417969 27.410156 23.425781 L 27.019531 23.445312 C 26.972656 23.445312 26.941406 23.488281 26.945312 23.53125 " fill-opacity="1" fill-rule="nonzero"/><path fill="#472562" d="M 27.714844 22.789062 C 27.710938 22.789062 27.707031 22.789062 27.707031 22.792969 C 27.707031 22.792969 27.707031 22.796875 27.707031 22.796875 L 27.722656 23.136719 C 27.726562 23.222656 27.699219 23.304688 27.640625 23.371094 C 27.582031 23.433594 27.5 23.472656 27.414062 23.476562 L 27.023438 23.492188 C 27.011719 23.496094 27.003906 23.5 27.003906 23.503906 C 27 23.507812 26.996094 23.515625 26.996094 23.523438 L 27.019531 23.695312 C 27.070312 24.035156 27.03125 24.386719 26.914062 24.707031 L 26.828125 24.953125 C 26.824219 24.960938 26.824219 24.96875 26.832031 24.976562 L 26.835938 24.984375 C 26.859375 25.011719 26.914062 25.046875 27 25.058594 C 27.105469 25.074219 27.320312 25.070312 27.589844 24.859375 C 27.703125 24.773438 28.277344 24.296875 28.632812 23.300781 C 28.644531 23.265625 28.632812 23.230469 28.601562 23.207031 C 28.4375 23.085938 28.019531 22.804688 27.714844 22.789062 Z M 27.070312 25.164062 C 27.039062 25.164062 27.011719 25.164062 26.988281 25.160156 C 26.882812 25.144531 26.800781 25.101562 26.757812 25.042969 L 26.75 25.035156 C 26.722656 25 26.71875 24.957031 26.730469 24.917969 L 26.820312 24.675781 C 26.929688 24.367188 26.964844 24.03125 26.917969 23.707031 L 26.894531 23.539062 C 26.890625 23.503906 26.902344 23.46875 26.925781 23.441406 C 26.949219 23.414062 26.980469 23.394531 27.019531 23.394531 L 27.40625 23.375 C 27.46875 23.371094 27.523438 23.347656 27.5625 23.300781 C 27.605469 23.257812 27.625 23.199219 27.621094 23.140625 L 27.605469 22.804688 C 27.601562 22.773438 27.613281 22.742188 27.636719 22.722656 C 27.65625 22.699219 27.6875 22.6875 27.71875 22.6875 C 28.054688 22.707031 28.492188 23 28.664062 23.128906 C 28.726562 23.175781 28.753906 23.257812 28.726562 23.335938 C 28.363281 24.355469 27.769531 24.851562 27.652344 24.9375 C 27.410156 25.125 27.203125 25.164062 27.070312 25.164062 " fill-opacity="1" fill-rule="nonzero"/><path fill="#472562" d="M 26.816406 24.898438 C 26.800781 24.898438 26.78125 24.886719 26.773438 24.871094 C 26.757812 24.84375 26.769531 24.816406 26.792969 24.800781 L 26.847656 24.777344 C 27.109375 24.644531 27.308594 24.40625 27.394531 24.125 L 27.425781 24.027344 C 27.4375 23.980469 27.472656 23.953125 27.519531 23.945312 C 27.566406 23.941406 27.609375 23.960938 27.632812 24 L 27.6875 24.089844 C 27.691406 24.097656 27.699219 24.101562 27.703125 24.101562 C 27.707031 24.101562 27.71875 24.101562 27.726562 24.09375 C 27.960938 23.824219 28.132812 23.515625 28.242188 23.175781 L 28.300781 22.980469 C 28.3125 22.953125 28.339844 22.9375 28.367188 22.945312 C 28.390625 22.953125 28.40625 22.980469 28.398438 23.007812 L 28.335938 23.207031 C 28.226562 23.558594 28.046875 23.878906 27.800781 24.160156 C 27.773438 24.1875 27.734375 24.203125 27.695312 24.199219 C 27.65625 24.195312 27.617188 24.175781 27.597656 24.140625 L 27.546875 24.050781 C 27.542969 24.046875 27.535156 24.042969 27.53125 24.046875 C 27.527344 24.046875 27.523438 24.046875 27.519531 24.054688 L 27.492188 24.152344 C 27.398438 24.460938 27.179688 24.71875 26.894531 24.863281 L 26.839844 24.890625 C 26.832031 24.894531 26.824219 24.898438 26.816406 24.898438 " fill-opacity="1" fill-rule="nonzero"/><path fill="#472562" d="M 23.300781 24.195312 C 23.300781 24.195312 23.367188 24.730469 23.148438 24.992188 L 23.082031 25.105469 L 24.136719 25.015625 L 24.082031 24.902344 C 23.984375 24.703125 23.902344 24.375 23.914062 24.160156 L 23.300781 24.195312 " fill-opacity="1" fill-rule="nonzero"/><path fill="#ffffff" d="M 23.167969 24.644531 L 23.066406 24.753906 C 22.863281 24.976562 22.609375 25.144531 22.324219 25.246094 L 22.105469 25.324219 C 22.085938 25.332031 22.070312 25.347656 22.066406 25.371094 L 22.0625 25.378906 C 22.03125 25.5 22.167969 25.777344 22.609375 25.875 C 22.875 25.933594 23.484375 25.976562 24.234375 25.71875 C 24.320312 25.6875 24.378906 25.601562 24.371094 25.511719 C 24.351562 25.296875 24.304688 24.914062 24.152344 24.714844 C 24.132812 24.691406 24.097656 24.6875 24.074219 24.710938 C 24.023438 24.753906 23.933594 24.835938 23.851562 24.914062 C 23.753906 25.003906 23.597656 24.996094 23.503906 24.898438 L 23.273438 24.644531 C 23.246094 24.613281 23.195312 24.613281 23.167969 24.644531 " fill-opacity="1" fill-rule="nonzero"/><path fill="#472562" d="M 23.207031 24.675781 L 23.105469 24.789062 C 22.894531 25.015625 22.632812 25.1875 22.34375 25.292969 L 22.125 25.371094 C 22.121094 25.375 22.117188 25.378906 22.113281 25.382812 L 22.113281 25.394531 C 22.105469 25.421875 22.109375 25.476562 22.152344 25.542969 C 22.199219 25.621094 22.324219 25.757812 22.621094 25.824219 C 22.738281 25.851562 23.363281 25.96875 24.214844 25.671875 C 24.28125 25.648438 24.324219 25.585938 24.320312 25.515625 C 24.304688 25.308594 24.253906 24.9375 24.109375 24.746094 L 23.886719 24.949219 C 23.828125 25.003906 23.753906 25.03125 23.675781 25.027344 C 23.59375 25.023438 23.523438 24.988281 23.46875 24.929688 L 23.234375 24.675781 C 23.230469 24.671875 23.222656 24.671875 23.222656 24.671875 C 23.21875 24.671875 23.210938 24.671875 23.207031 24.675781 Z M 23.089844 25.96875 C 22.832031 25.96875 22.65625 25.9375 22.597656 25.925781 C 22.265625 25.847656 22.121094 25.6875 22.066406 25.59375 C 22.015625 25.515625 21.996094 25.433594 22.011719 25.367188 L 22.015625 25.359375 C 22.027344 25.320312 22.054688 25.289062 22.089844 25.277344 L 22.308594 25.199219 C 22.582031 25.101562 22.832031 24.933594 23.03125 24.722656 L 23.132812 24.609375 C 23.15625 24.585938 23.1875 24.570312 23.222656 24.570312 C 23.253906 24.570312 23.289062 24.585938 23.308594 24.609375 L 23.542969 24.863281 C 23.578125 24.902344 23.625 24.925781 23.679688 24.925781 C 23.730469 24.929688 23.78125 24.910156 23.816406 24.875 L 24.039062 24.671875 C 24.0625 24.652344 24.089844 24.644531 24.121094 24.644531 C 24.148438 24.648438 24.175781 24.664062 24.191406 24.6875 C 24.351562 24.894531 24.402344 25.289062 24.421875 25.507812 C 24.429688 25.621094 24.359375 25.730469 24.25 25.765625 C 23.785156 25.929688 23.382812 25.96875 23.089844 25.96875 " fill-opacity="1" fill-rule="nonzero"/><path fill="#472562" d="M 23.28125 25.582031 C 23.261719 25.582031 23.242188 25.582031 23.222656 25.582031 C 23.183594 25.582031 23.148438 25.5625 23.128906 25.53125 C 23.105469 25.5 23.101562 25.460938 23.113281 25.425781 L 23.144531 25.34375 C 23.144531 25.339844 23.144531 25.339844 23.144531 25.335938 C 23.140625 25.332031 23.136719 25.332031 23.136719 25.335938 L 23.050781 25.371094 C 22.785156 25.480469 22.480469 25.480469 22.21875 25.367188 L 22.171875 25.347656 C 22.144531 25.335938 22.132812 25.304688 22.144531 25.28125 C 22.15625 25.253906 22.183594 25.242188 22.210938 25.253906 L 22.257812 25.273438 C 22.496094 25.378906 22.773438 25.378906 23.011719 25.277344 L 23.097656 25.242188 C 23.136719 25.226562 23.179688 25.234375 23.214844 25.261719 C 23.246094 25.292969 23.253906 25.335938 23.242188 25.375 L 23.210938 25.460938 C 23.207031 25.46875 23.210938 25.472656 23.210938 25.476562 C 23.210938 25.476562 23.214844 25.480469 23.222656 25.480469 C 23.542969 25.492188 23.851562 25.433594 24.144531 25.3125 L 24.316406 25.246094 C 24.34375 25.234375 24.371094 25.246094 24.382812 25.273438 C 24.394531 25.296875 24.378906 25.328125 24.355469 25.335938 L 24.183594 25.40625 C 23.894531 25.523438 23.59375 25.582031 23.28125 25.582031 " fill-opacity="1" fill-rule="nonzero"/><path fill="#6f129d" d="M 24.921875 15.324219 C 24.921875 15.324219 25.390625 16.710938 24.695312 17.722656 C 23.757812 19.089844 24.414062 22.15625 23.988281 24.246094 C 23.980469 24.285156 23.945312 24.316406 23.90625 24.316406 L 23.3125 24.328125 C 23.269531 24.328125 23.234375 24.304688 23.226562 24.265625 C 23.070312 23.753906 22.003906 20.195312 22.070312 19.042969 C 22.121094 18.089844 22.273438 17.136719 22.664062 16.261719 L 23.277344 14.898438 L 24.921875 15.324219 " fill-opacity="1" fill-rule="nonzero"/><path fill="#6f129d" d="M 25.398438 15.449219 C 25.398438 15.449219 25.996094 16.402344 25.820312 17.453125 C 25.648438 18.503906 26.058594 19.34375 26.335938 19.734375 C 26.609375 20.121094 27.125 21.101562 27.378906 22.59375 C 27.386719 22.628906 27.375 22.667969 27.347656 22.691406 C 27.269531 22.777344 27.074219 22.949219 26.761719 22.984375 C 26.726562 22.988281 26.6875 22.972656 26.664062 22.949219 C 26.398438 22.6875 24.878906 21.144531 24.296875 19.878906 C 23.65625 18.492188 23.40625 16.136719 23.40625 16.136719 C 23.40625 16.136719 24.789062 16.195312 25.398438 15.449219 " fill-opacity="1" fill-rule="nonzero"/><path fill="#8400d3" d="M 24.207031 19.875 C 24.1875 19.875 24.167969 19.863281 24.160156 19.84375 C 23.648438 18.582031 23.449219 16.933594 23.589844 16.246094 C 23.59375 16.21875 23.621094 16.199219 23.648438 16.207031 C 23.675781 16.210938 23.695312 16.238281 23.6875 16.265625 C 23.550781 16.941406 23.761719 18.597656 24.253906 19.804688 C 24.265625 19.832031 24.253906 19.863281 24.226562 19.871094 C 24.222656 19.875 24.214844 19.875 24.207031 19.875 " fill-opacity="1" fill-rule="nonzero"/><path fill="#ffffff" d="M 20.789062 8.167969 C 20.839844 8.15625 20.878906 8.125 20.902344 8.082031 C 20.984375 7.9375 21.148438 7.589844 21.054688 7.316406 C 20.933594 6.964844 20.59375 6.722656 20.523438 6.78125 C 20.449219 6.839844 20.832031 7.53125 20.539062 7.746094 C 20.539062 7.746094 20.34375 7.738281 20.171875 7.445312 C 20.148438 7.402344 20.089844 7.402344 20.0625 7.445312 C 20.03125 7.5 20.003906 7.597656 20.023438 7.746094 C 20.050781 7.9375 20.167969 8.101562 20.246094 8.195312 C 20.285156 8.246094 20.351562 8.269531 20.417969 8.253906 L 20.789062 8.167969 " fill-opacity="1" fill-rule="nonzero"/><path fill="#472562" d="M 20.117188 7.464844 C 20.117188 7.464844 20.109375 7.464844 20.109375 7.46875 C 20.082031 7.515625 20.054688 7.597656 20.074219 7.738281 C 20.101562 7.921875 20.21875 8.085938 20.285156 8.164062 C 20.3125 8.199219 20.359375 8.214844 20.40625 8.207031 L 20.777344 8.117188 C 20.8125 8.109375 20.839844 8.085938 20.859375 8.058594 C 20.929688 7.921875 21.09375 7.585938 21.007812 7.332031 C 20.902344 7.03125 20.644531 6.839844 20.5625 6.824219 C 20.566406 6.859375 20.589844 6.933594 20.609375 6.996094 C 20.683594 7.246094 20.792969 7.621094 20.570312 7.785156 L 20.554688 7.796875 L 20.535156 7.796875 C 20.527344 7.796875 20.3125 7.78125 20.128906 7.46875 C 20.125 7.464844 20.121094 7.464844 20.117188 7.464844 Z M 20.375 8.308594 C 20.3125 8.308594 20.25 8.28125 20.207031 8.230469 C 20.117188 8.121094 20 7.949219 19.972656 7.753906 C 19.953125 7.617188 19.96875 7.503906 20.019531 7.417969 C 20.039062 7.382812 20.078125 7.363281 20.117188 7.363281 C 20.160156 7.363281 20.195312 7.386719 20.21875 7.417969 C 20.34375 7.632812 20.476562 7.683594 20.523438 7.691406 C 20.667969 7.5625 20.574219 7.238281 20.511719 7.023438 C 20.464844 6.863281 20.441406 6.785156 20.488281 6.742188 C 20.507812 6.726562 20.539062 6.714844 20.597656 6.726562 C 20.734375 6.765625 20.996094 6.992188 21.101562 7.300781 C 21.203125 7.59375 21.027344 7.960938 20.945312 8.105469 C 20.917969 8.160156 20.863281 8.199219 20.800781 8.214844 L 20.429688 8.304688 C 20.410156 8.308594 20.394531 8.308594 20.375 8.308594 " fill-opacity="1" fill-rule="nonzero"/><path fill="#ffffff" d="M 21.835938 15.757812 C 21.683594 15.671875 20.746094 15.117188 20.582031 14.203125 C 20.578125 14.191406 20.570312 14.183594 20.558594 14.1875 C 20.375 14.242188 19.035156 14.601562 17.847656 13.792969 C 17.832031 13.785156 17.816406 13.792969 17.816406 13.8125 C 17.824219 13.941406 18.238281 15.511719 18.246094 15.585938 C 18.246094 15.589844 18.25 15.597656 18.253906 15.601562 C 18.386719 15.664062 19.769531 16.316406 20.902344 16.1875 C 21.496094 16.121094 21.773438 15.859375 21.839844 15.789062 C 21.847656 15.777344 21.84375 15.765625 21.835938 15.757812 " fill-opacity="1" fill-rule="nonzero"/><path fill="#472562" d="M 18.292969 15.5625 C 18.5 15.660156 19.8125 16.261719 20.894531 16.136719 C 21.410156 16.078125 21.675781 15.875 21.773438 15.78125 C 21.53125 15.640625 20.710938 15.105469 20.539062 14.246094 C 20.28125 14.316406 19.015625 14.609375 17.878906 13.875 C 17.917969 14.054688 18.035156 14.523438 18.125 14.878906 C 18.230469 15.296875 18.28125 15.496094 18.292969 15.5625 Z M 20.59375 16.253906 C 19.523438 16.253906 18.371094 15.714844 18.234375 15.644531 C 18.210938 15.632812 18.195312 15.613281 18.195312 15.589844 C 18.191406 15.554688 18.105469 15.222656 18.027344 14.902344 C 17.875 14.3125 17.769531 13.886719 17.765625 13.8125 C 17.761719 13.789062 17.777344 13.761719 17.800781 13.75 C 17.824219 13.734375 17.851562 13.738281 17.875 13.753906 C 19.050781 14.554688 20.394531 14.183594 20.542969 14.140625 C 20.5625 14.132812 20.582031 14.136719 20.601562 14.144531 C 20.617188 14.15625 20.628906 14.171875 20.632812 14.191406 C 20.792969 15.078125 21.683594 15.613281 21.859375 15.714844 C 21.878906 15.722656 21.890625 15.742188 21.894531 15.761719 C 21.898438 15.785156 21.890625 15.804688 21.875 15.820312 C 21.804688 15.902344 21.515625 16.167969 20.90625 16.238281 C 20.804688 16.25 20.699219 16.253906 20.59375 16.253906 " fill-opacity="1" fill-rule="nonzero"/><path fill="#6f129d" d="M 20.300781 15.777344 C 20.289062 15.777344 20.28125 15.773438 20.269531 15.765625 C 20.238281 15.742188 19.445312 15.152344 19.421875 14.546875 C 19.421875 14.519531 19.445312 14.496094 19.472656 14.496094 C 19.5 14.496094 19.523438 14.515625 19.523438 14.542969 C 19.542969 15.097656 20.324219 15.679688 20.332031 15.6875 C 20.355469 15.703125 20.359375 15.734375 20.34375 15.757812 C 20.332031 15.769531 20.316406 15.777344 20.300781 15.777344 " fill-opacity="1" fill-rule="nonzero"/><path fill="#6f129d" d="M 19.734375 15.804688 C 19.71875 15.804688 19.707031 15.800781 19.695312 15.792969 C 19.671875 15.769531 19.113281 15.21875 19.074219 14.621094 C 19.074219 14.59375 19.09375 14.566406 19.121094 14.566406 C 19.148438 14.566406 19.175781 14.585938 19.175781 14.613281 C 19.210938 15.175781 19.761719 15.714844 19.769531 15.71875 C 19.789062 15.738281 19.789062 15.773438 19.769531 15.792969 C 19.757812 15.800781 19.746094 15.804688 19.734375 15.804688 " fill-opacity="1" fill-rule="nonzero"/><path fill="#6f129d" d="M 18.441406 14.746094 C 18.425781 14.746094 18.40625 14.738281 18.398438 14.722656 C 18.394531 14.710938 18.28125 14.515625 18.273438 14.375 C 18.269531 14.347656 18.292969 14.324219 18.320312 14.320312 C 18.347656 14.320312 18.371094 14.339844 18.375 14.367188 C 18.378906 14.464844 18.457031 14.621094 18.484375 14.671875 C 18.5 14.695312 18.492188 14.726562 18.464844 14.742188 C 18.457031 14.746094 18.449219 14.746094 18.441406 14.746094 " fill-opacity="1" fill-rule="nonzero"/><path fill="#ffffff" d="M 21.601562 15.425781 C 21.601562 15.425781 20.589844 15.597656 20.324219 15.476562 C 20.058594 15.355469 20.070312 15.179688 20.175781 15.09375 C 20.257812 15.03125 20.796875 15.027344 21.03125 15.027344 C 21.050781 15.027344 21.054688 15.003906 21.039062 14.996094 C 20.898438 14.949219 20.679688 14.726562 20.742188 14.65625 C 20.84375 14.550781 21.011719 14.742188 21.195312 14.789062 C 21.425781 14.851562 21.589844 14.828125 21.589844 14.828125 L 21.601562 15.425781 " fill-opacity="1" fill-rule="nonzero"/><path fill="#472562" d="M 21.023438 15.042969 Z M 20.964844 15.078125 C 20.425781 15.078125 20.234375 15.113281 20.207031 15.132812 C 20.171875 15.164062 20.152344 15.203125 20.15625 15.246094 C 20.164062 15.3125 20.234375 15.378906 20.34375 15.429688 C 20.542969 15.519531 21.246094 15.433594 21.550781 15.382812 L 21.539062 14.882812 C 21.46875 14.882812 21.339844 14.882812 21.183594 14.839844 C 21.109375 14.820312 21.039062 14.777344 20.976562 14.742188 C 20.871094 14.683594 20.816406 14.65625 20.78125 14.6875 C 20.777344 14.734375 20.925781 14.90625 21.054688 14.949219 C 21.085938 14.960938 21.105469 14.992188 21.097656 15.023438 C 21.09375 15.054688 21.066406 15.078125 21.03125 15.078125 C 21.007812 15.078125 20.984375 15.078125 20.964844 15.078125 Z M 20.660156 15.570312 C 20.511719 15.570312 20.378906 15.554688 20.304688 15.519531 C 20.105469 15.429688 20.0625 15.316406 20.054688 15.257812 C 20.046875 15.183594 20.078125 15.105469 20.144531 15.054688 C 20.207031 15.007812 20.460938 14.980469 20.898438 14.976562 C 20.800781 14.910156 20.707031 14.804688 20.683594 14.722656 C 20.671875 14.667969 20.691406 14.636719 20.707031 14.621094 C 20.796875 14.527344 20.917969 14.59375 21.027344 14.65625 C 21.085938 14.691406 21.148438 14.726562 21.207031 14.742188 C 21.425781 14.800781 21.582031 14.777344 21.582031 14.777344 L 21.640625 14.769531 L 21.652344 15.46875 L 21.609375 15.476562 C 21.582031 15.480469 21.054688 15.570312 20.660156 15.570312 " fill-opacity="1" fill-rule="nonzero"/><path fill="#472562" d="M 24.082031 10.433594 C 23.332031 10.367188 22.332031 10.042969 21.789062 9.484375 C 21.46875 9.15625 21.21875 8.582031 20.984375 8.011719 L 20.183594 8.195312 C 20.183594 8.195312 20.328125 11.96875 23.707031 12.160156 L 24.082031 10.433594 " fill-opacity="1" fill-rule="nonzero"/><path fill="#472562" d="M 23.183594 12.582031 C 23.332031 12.90625 23.636719 13.828125 23.027344 15.164062 C 23.027344 15.164062 23.890625 16.605469 25.917969 16.3125 C 25.917969 16.3125 25.609375 15.503906 25.707031 14.273438 C 25.800781 13.046875 26.136719 11.359375 25.085938 10.761719 C 25.085938 10.761719 24.070312 10.136719 23.394531 10.566406 C 23.289062 10.636719 23.203125 10.738281 23.152344 10.851562 C 22.964844 11.261719 22.921875 11.71875 23.035156 12.15625 L 23.058594 12.230469 C 23.089844 12.351562 23.128906 12.46875 23.183594 12.582031 " fill-opacity="1" fill-rule="nonzero"/><path fill="#472562" d="M 21.496094 14.683594 L 21.511719 15.5625 C 21.511719 15.5625 24.777344 16.375 25.800781 12.273438 L 24.238281 12.257812 C 24.238281 12.257812 23.773438 14.046875 21.496094 14.683594 " fill-opacity="1" fill-rule="nonzero"/><path fill="#ffffff" d="M 23.914062 15.273438 C 23.898438 15.273438 23.878906 15.265625 23.871094 15.25 C 23.855469 15.226562 23.863281 15.195312 23.890625 15.179688 C 24.636719 14.738281 25.140625 14.167969 25.480469 13.375 C 25.492188 13.351562 25.519531 13.339844 25.546875 13.351562 C 25.570312 13.359375 25.582031 13.390625 25.574219 13.417969 C 25.226562 14.226562 24.707031 14.816406 23.941406 15.265625 C 23.933594 15.273438 23.921875 15.273438 23.914062 15.273438 " fill-opacity="1" fill-rule="nonzero"/><path fill="#ffffff" d="M 23.035156 12.421875 C 23.011719 12.421875 22.992188 12.410156 22.988281 12.390625 C 22.804688 11.835938 23 11.488281 23.007812 11.472656 C 23.023438 11.449219 23.054688 11.441406 23.078125 11.453125 C 23.101562 11.46875 23.109375 11.5 23.097656 11.523438 C 23.09375 11.527344 22.914062 11.847656 23.082031 12.355469 C 23.089844 12.382812 23.078125 12.410156 23.050781 12.421875 C 23.046875 12.421875 23.039062 12.421875 23.035156 12.421875 " fill-opacity="1" fill-rule="nonzero"/><path fill="#472562" d="M 24.21875 8.449219 C 24.222656 8.378906 24.257812 8.316406 24.316406 8.273438 C 24.484375 8.148438 24.863281 7.933594 25.28125 8.132812 C 25.871094 8.410156 25.972656 8.769531 25.878906 9.285156 C 25.816406 9.648438 25.484375 10.09375 25.191406 10.128906 C 24.773438 10.175781 24.5625 9.832031 24.5625 9.832031 L 24.210938 8.566406 L 24.21875 8.449219 " fill-opacity="1" fill-rule="nonzero"/><path fill="#472562" d="M 25.761719 8.902344 L 25.695312 8.484375 C 25.695312 8.484375 26.097656 8.25 26.488281 8.375 C 26.882812 8.5 27.261719 8.988281 27.050781 9.707031 C 26.941406 10.078125 27.210938 10.324219 27.445312 10.664062 C 27.496094 10.738281 27.546875 10.808594 27.605469 10.875 C 28.0625 11.371094 27.84375 11.855469 27.84375 11.855469 C 27.808594 11.753906 27.769531 11.679688 27.714844 11.601562 C 27.671875 12.273438 27.066406 12.804688 26.425781 12.828125 C 25.8125 12.847656 25.175781 12.320312 25.113281 11.835938 C 25.054688 11.363281 25.292969 10.742188 25.601562 10.292969 C 25.910156 9.847656 26.46875 9.261719 25.761719 8.902344 " fill-opacity="1" fill-rule="nonzero"/><path fill="#ffffff" d="M 25.929688 12.828125 C 25.925781 12.828125 25.917969 12.828125 25.910156 12.828125 C 25.449219 12.652344 25.082031 12.253906 25.03125 11.875 C 25.015625 11.757812 25.019531 11.628906 25.039062 11.488281 C 25.042969 11.460938 25.066406 11.441406 25.09375 11.445312 C 25.121094 11.449219 25.140625 11.472656 25.136719 11.503906 C 25.121094 11.632812 25.117188 11.753906 25.132812 11.863281 C 25.175781 12.199219 25.527344 12.574219 25.949219 12.730469 C 25.972656 12.742188 25.988281 12.769531 25.976562 12.796875 C 25.96875 12.816406 25.949219 12.828125 25.929688 12.828125 " fill-opacity="1" fill-rule="nonzero"/><path fill="#ffffff" d="M 24.277344 8.445312 C 24.277344 8.445312 24.136719 8.628906 24.121094 8.796875 C 24.109375 8.925781 23.964844 9.042969 23.882812 9.082031 C 23.859375 9.09375 23.851562 9.125 23.871094 9.144531 L 23.929688 9.207031 C 23.953125 9.230469 23.957031 9.265625 23.949219 9.296875 C 23.914062 9.40625 23.84375 9.660156 23.867188 9.742188 C 23.90625 9.871094 24.277344 9.886719 24.355469 9.890625 C 24.363281 9.890625 24.195312 10.449219 24.195312 10.449219 C 24.144531 10.585938 24.144531 10.691406 24.199219 10.792969 C 24.304688 10.988281 24.691406 11.121094 24.90625 11.035156 C 24.945312 11.019531 25.019531 10.933594 25.035156 10.882812 C 25.066406 10.777344 25.128906 10.140625 25.128906 10.140625 C 25.128906 10.140625 24.976562 10.085938 24.878906 9.878906 C 24.796875 9.699219 24.785156 9.492188 24.839844 9.445312 C 24.96875 9.34375 25.066406 9.234375 24.996094 9.097656 C 24.925781 8.960938 24.796875 9 24.726562 9.039062 C 24.628906 9.089844 24.359375 8.933594 24.320312 8.671875 C 24.277344 8.40625 24.277344 8.445312 24.277344 8.445312 " fill-opacity="1" fill-rule="nonzero"/><path fill="#472562" d="M 23.917969 9.121094 L 23.964844 9.171875 C 24 9.210938 24.011719 9.265625 23.996094 9.3125 C 23.9375 9.507812 23.902344 9.683594 23.914062 9.726562 C 23.921875 9.753906 23.980469 9.816406 24.339844 9.839844 L 24.386719 9.84375 L 24.398438 9.863281 C 24.417969 9.890625 24.417969 9.890625 24.246094 10.460938 C 24.199219 10.59375 24.195312 10.683594 24.242188 10.769531 C 24.335938 10.941406 24.695312 11.0625 24.886719 10.988281 C 24.90625 10.980469 24.972656 10.910156 24.988281 10.867188 C 25.011719 10.789062 25.054688 10.367188 25.074219 10.171875 C 25.019531 10.140625 24.910156 10.0625 24.835938 9.898438 C 24.75 9.71875 24.722656 9.476562 24.808594 9.40625 C 24.957031 9.285156 24.996094 9.207031 24.949219 9.117188 C 24.933594 9.085938 24.910156 9.066406 24.882812 9.058594 C 24.832031 9.039062 24.769531 9.070312 24.75 9.082031 C 24.703125 9.109375 24.632812 9.101562 24.554688 9.066406 C 24.441406 9.011719 24.300781 8.875 24.269531 8.675781 C 24.261719 8.636719 24.257812 8.601562 24.253906 8.574219 C 24.21875 8.636719 24.175781 8.722656 24.171875 8.804688 C 24.15625 8.945312 24.015625 9.070312 23.917969 9.121094 Z M 24.75 11.109375 C 24.523438 11.109375 24.246094 10.988281 24.15625 10.816406 C 24.09375 10.703125 24.09375 10.585938 24.148438 10.429688 C 24.195312 10.277344 24.265625 10.042969 24.292969 9.9375 C 24.085938 9.921875 23.859375 9.882812 23.820312 9.753906 C 23.789062 9.664062 23.859375 9.421875 23.902344 9.28125 C 23.90625 9.269531 23.902344 9.253906 23.890625 9.242188 L 23.832031 9.175781 C 23.8125 9.15625 23.804688 9.128906 23.8125 9.101562 C 23.816406 9.074219 23.832031 9.050781 23.859375 9.039062 C 23.929688 9.003906 24.058594 8.898438 24.070312 8.792969 C 24.082031 8.636719 24.195312 8.472656 24.226562 8.425781 L 24.230469 8.398438 L 24.273438 8.394531 C 24.320312 8.390625 24.328125 8.433594 24.335938 8.46875 C 24.34375 8.507812 24.355469 8.574219 24.371094 8.664062 C 24.394531 8.8125 24.503906 8.925781 24.601562 8.976562 C 24.648438 9 24.6875 9 24.703125 8.992188 C 24.738281 8.976562 24.824219 8.933594 24.914062 8.960938 C 24.96875 8.976562 25.011719 9.015625 25.039062 9.074219 C 25.140625 9.269531 24.960938 9.414062 24.871094 9.484375 C 24.847656 9.507812 24.84375 9.679688 24.925781 9.859375 C 25.011719 10.042969 25.140625 10.09375 25.144531 10.09375 L 25.183594 10.109375 L 25.179688 10.144531 C 25.171875 10.210938 25.117188 10.789062 25.085938 10.894531 C 25.066406 10.960938 24.980469 11.058594 24.925781 11.082031 C 24.875 11.101562 24.8125 11.109375 24.75 11.109375 " fill-opacity="1" fill-rule="nonzero"/><path fill="#472562" d="M 24.730469 9.511719 C 24.6875 9.511719 24.640625 9.5 24.601562 9.472656 C 24.578125 9.457031 24.570312 9.425781 24.585938 9.402344 C 24.605469 9.378906 24.636719 9.371094 24.660156 9.386719 C 24.75 9.449219 24.84375 9.378906 24.910156 9.308594 C 24.925781 9.289062 24.960938 9.289062 24.980469 9.304688 C 25 9.324219 25.003906 9.355469 24.984375 9.378906 C 24.902344 9.46875 24.816406 9.511719 24.730469 9.511719 " fill-opacity="1" fill-rule="nonzero"/><path fill="#472562" d="M 12.394531 4.496094 C 12.367188 4.496094 12.34375 4.472656 12.34375 4.445312 L 12.34375 4.308594 C 12.34375 4.28125 12.367188 4.257812 12.394531 4.257812 C 12.421875 4.257812 12.445312 4.28125 12.445312 4.308594 L 12.445312 4.449219 C 12.445312 4.476562 12.421875 4.496094 12.394531 4.496094 " fill-opacity="1" fill-rule="nonzero"/><path fill="#472562" d="M 12.390625 5.160156 C 12.363281 5.15625 12.339844 5.136719 12.339844 5.109375 L 12.339844 4.96875 C 12.339844 4.941406 12.363281 4.917969 12.390625 4.917969 C 12.417969 4.921875 12.441406 4.941406 12.441406 4.96875 L 12.441406 5.109375 C 12.441406 5.136719 12.417969 5.160156 12.390625 5.160156 " fill-opacity="1" fill-rule="nonzero"/><path fill="#472562" d="M 11.988281 4.761719 C 11.960938 4.761719 11.9375 4.738281 11.9375 4.710938 C 11.9375 4.683594 11.960938 4.660156 11.988281 4.660156 L 12.128906 4.660156 C 12.15625 4.660156 12.179688 4.683594 12.179688 4.710938 C 12.179688 4.738281 12.15625 4.761719 12.128906 4.761719 L 11.988281 4.761719 " fill-opacity="1" fill-rule="nonzero"/><path fill="#472562" d="M 12.65625 4.757812 C 12.628906 4.757812 12.605469 4.734375 12.605469 4.707031 C 12.605469 4.679688 12.628906 4.65625 12.65625 4.65625 L 12.796875 4.65625 C 12.824219 4.65625 12.847656 4.679688 12.847656 4.707031 C 12.847656 4.734375 12.824219 4.757812 12.796875 4.757812 L 12.65625 4.757812 " fill-opacity="1" fill-rule="nonzero"/><path fill="#472562" d="M 10.898438 3.644531 C 10.886719 3.644531 10.871094 3.640625 10.863281 3.632812 L 10.765625 3.53125 C 10.746094 3.511719 10.746094 3.480469 10.765625 3.460938 C 10.785156 3.441406 10.816406 3.441406 10.835938 3.460938 L 10.933594 3.558594 C 10.953125 3.582031 10.953125 3.613281 10.933594 3.632812 C 10.925781 3.640625 10.910156 3.644531 10.898438 3.644531 " fill-opacity="1" fill-rule="nonzero"/><path fill="#472562" d="M 11.367188 4.117188 C 11.355469 4.117188 11.339844 4.109375 11.332031 4.101562 L 11.234375 4.003906 C 11.214844 3.984375 11.214844 3.953125 11.234375 3.933594 C 11.253906 3.914062 11.285156 3.914062 11.304688 3.933594 L 11.402344 4.03125 C 11.421875 4.050781 11.421875 4.082031 11.402344 4.101562 C 11.394531 4.109375 11.378906 4.117188 11.367188 4.117188 " fill-opacity="1" fill-rule="nonzero"/><path fill="#472562" d="M 10.800781 4.117188 C 10.789062 4.117188 10.773438 4.109375 10.765625 4.101562 C 10.746094 4.082031 10.746094 4.050781 10.765625 4.03125 L 10.863281 3.933594 C 10.882812 3.914062 10.914062 3.914062 10.933594 3.933594 C 10.953125 3.953125 10.953125 3.984375 10.933594 4.003906 L 10.835938 4.101562 C 10.828125 4.109375 10.8125 4.117188 10.800781 4.117188 " fill-opacity="1" fill-rule="nonzero"/><path fill="#472562" d="M 11.269531 3.644531 C 11.257812 3.644531 11.242188 3.640625 11.234375 3.632812 C 11.214844 3.613281 11.214844 3.582031 11.234375 3.558594 L 11.332031 3.460938 C 11.351562 3.441406 11.382812 3.441406 11.402344 3.460938 C 11.421875 3.480469 11.421875 3.511719 11.402344 3.53125 L 11.304688 3.632812 C 11.296875 3.640625 11.28125 3.644531 11.269531 3.644531 " fill-opacity="1" fill-rule="nonzero"/><path fill="#472562" d="M 27.078125 2.398438 C 27.078125 2.253906 27.195312 2.136719 27.339844 2.136719 C 27.484375 2.136719 27.601562 2.253906 27.601562 2.398438 C 27.601562 2.542969 27.484375 2.660156 27.339844 2.660156 C 27.195312 2.660156 27.078125 2.542969 27.078125 2.398438 " fill-opacity="1" fill-rule="nonzero"/></svg>